# OBJ generated by ONSHAPE BY PTC INC, 1.216 Units = meters
mtllib AK40_10_KV170_12.mtl
g AK40-10 KV170
usemtl 0.910000_0.910000_0.910000_0.000000_0.000000
o mesh418
v -0.00555211 -0.0024 -0.023919 
v -0.00523069 -0.0024 -0.0235899 
v -0.00520161 -0.00240207 -0.0236183 
v -0.00552303 -0.00240207 -0.0239474 
v -0.00517282 -0.00240826 -0.0236464 
v -0.00549424 -0.00240826 -0.0239755 
v -0.00514464 -0.00241851 -0.023674 
v -0.00546606 -0.00241851 -0.024003 
v -0.00511735 -0.00243271 -0.0237006 
v -0.00543877 -0.00243271 -0.0240297 
v -0.00509123 -0.00245072 -0.0237261 
v -0.00541265 -0.00245072 -0.0240552 
v -0.00506656 -0.00247234 -0.0237502 
v -0.00538798 -0.00247234 -0.0240793 
v -0.00504359 -0.00249735 -0.0237727 
v -0.00536501 -0.00249735 -0.0241017 
v -0.00502255 -0.0025255 -0.0237932 
v -0.00534397 -0.0025255 -0.0241223 
v -0.00500367 -0.0025565 -0.0238117 
v -0.00532509 -0.0025565 -0.0241407 
v -0.00498714 -0.00259001 -0.0238278 
v -0.00530856 -0.00259001 -0.0241569 
v -0.00497313 -0.0026257 -0.0238415 
v -0.00529455 -0.0026257 -0.0241706 
v -0.0049618 -0.00266319 -0.0238526 
v -0.00528321 -0.00266319 -0.0241816 
vn -6.10855e-08 1 -6.25403e-08 
vn -6.10855e-08 1 -6.25403e-08 
vn 0.0727075 0.994822 -0.0710162 
vn 0.0727075 0.994822 -0.0710162 
vn 0.144662 0.979341 -0.141297 
vn 0.144662 0.979341 -0.141297 
vn 0.215119 0.953717 -0.210114 
vn 0.215119 0.953717 -0.210114 
vn 0.283347 0.918216 -0.276756 
vn 0.283347 0.918216 -0.276756 
vn 0.348641 0.873206 -0.340531 
vn 0.348641 0.873206 -0.340531 
vn 0.410324 0.819152 -0.400779 
vn 0.410324 0.819152 -0.400779 
vn 0.467758 0.756615 -0.456877 
vn 0.467758 0.756615 -0.456877 
vn 0.520348 0.686242 -0.508243 
vn 0.520348 0.686242 -0.508243 
vn 0.567548 0.608761 -0.554345 
vn 0.567548 0.608761 -0.554345 
vn 0.608871 0.524977 -0.594707 
vn 0.608871 0.524977 -0.594707 
vn 0.643888 0.435755 -0.628909 
vn 0.643888 0.435755 -0.628909 
vn 0.672236 0.34202 -0.656598 
vn 0.672236 0.34202 -0.656598 
f 1//1 2//2 3//3 
f 4//4 3//3 5//5 
f 6//6 5//5 7//7 
f 8//8 7//7 9//9 
f 10//10 9//9 11//11 
f 12//12 11//11 13//13 
f 14//14 13//13 15//15 
f 16//16 15//15 17//17 
f 18//18 17//17 19//19 
f 20//20 19//19 21//21 
f 22//22 21//21 23//23 
f 24//24 23//23 25//25 
f 25//25 26//26 24//24 
f 23//23 24//24 22//22 
f 21//21 22//22 20//20 
f 19//19 20//20 18//18 
f 17//17 18//18 16//16 
f 15//15 16//16 14//14 
f 13//13 14//14 12//12 
f 11//11 12//12 10//10 
f 9//9 10//10 8//8 
f 7//7 8//8 6//6 
f 5//5 6//6 4//4 
f 3//3 4//4 1//1 
