# OBJ generated by ONSHAPE BY PTC INC, 1.216 Units = meters
mtllib AK40_10_KV170_35.mtl
g AK40-10 KV170
usemtl 0.910000_0.910000_0.910000_0.000000_0.000000
o mesh526
v -0.00708541 -0.0057 -0.0183116 
v -0.00953098 -0.0057 -0.0208154 
v -0.00505987 -0.0057 -0.0251825 
v -0.00261429 -0.0057 -0.0226787 
vn -3.05428e-08 -1 -3.12702e-08 
vn -3.05428e-08 -1 -3.12702e-08 
vn -3.05428e-08 -1 -3.12702e-08 
vn -3.05428e-08 -1 -3.12702e-08 
f 1//1 2//2 3//3 
f 3//3 4//4 1//1 
o mesh527
v -0.00577524 -0.00715 -0.0244838 
v -0.00609717 -0.00705 -0.0241694 
v -0.00602563 -0.00705 -0.0242392 
v -0.00588255 -0.00705 -0.024379 
v -0.00581101 -0.00705 -0.0244488 
v -0.00556063 -0.00705 -0.0246934 
v -0.00556063 -0.00775 -0.0246934 
v -0.00470218 -0.00835 -0.0255319 
v -0.00505987 -0.00775 -0.0251825 
v -0.00470218 -0.0072 -0.0255319 
v -0.00541756 -0.00835 -0.0248332 
v -0.00609717 -0.00685 -0.0241694 
v -0.00602563 -0.00685 -0.0242392 
v -0.00434449 -0.00945 -0.0258813 
v -0.00470218 -0.00895 -0.0255319 
v -0.00550698 -0.00944 -0.0247458 
v -0.00541756 -0.00895 -0.0248332 
v -0.00577524 -0.00895 -0.0244838 
v -0.00699139 -0.00705 -0.0232959 
v -0.00691985 -0.00705 -0.0233658 
v -0.00781408 -0.00705 -0.0224924 
v -0.007671 -0.00705 -0.0226321 
v -0.00434449 -0.0072 -0.0258813 
v -0.00988867 -0.0052 -0.020466 
v -0.00470218 -0.0052 -0.0255319 
v -0.00505987 -0.0057 -0.0251825 
v -0.00550698 -0.00945 -0.0247458 
v -0.00677678 -0.00705 -0.0235056 
v -0.00759946 -0.00705 -0.022702 
v -0.00670524 -0.00705 -0.0235754 
v -0.00953098 -0.0057 -0.0208154 
v -0.00881561 -0.00895 -0.0215142 
v -0.00670524 -0.00685 -0.0235754 
v -0.00699139 -0.00685 -0.0232959 
v -0.00691985 -0.00685 -0.0233658 
v -0.00788561 -0.00685 -0.0224225 
v -0.00781408 -0.00685 -0.0224924 
v -0.0091733 -0.00895 -0.0211648 
v -0.0091733 -0.00835 -0.0211648 
v -0.00759946 -0.00685 -0.022702 
v -0.00788561 -0.00705 -0.0224225 
v -0.00856522 -0.00705 -0.0217587 
v -0.00849369 -0.00705 -0.0218286 
v -0.00908387 -0.00944 -0.0212521 
v -0.0102464 -0.00945 -0.0201167 
v -0.00988867 -0.00895 -0.020466 
v -0.00849369 -0.00685 -0.0218286 
v -0.00881561 -0.00715 -0.0215142 
v -0.00903022 -0.00705 -0.0213045 
v -0.00877984 -0.00705 -0.0215491 
v -0.00988867 -0.00835 -0.020466 
v -0.00953098 -0.00775 -0.0208154 
v -0.00988867 -0.0072 -0.020466 
v -0.0102464 -0.0072 -0.0201167 
v -0.007671 -0.00685 -0.0226321 
v -0.00856522 -0.00685 -0.0217587 
v -0.0087083 -0.00705 -0.021619 
v -0.00877984 -0.00685 -0.0215491 
v -0.00903022 -0.00775 -0.0213045 
v -0.00908387 -0.00945 -0.0212521 
v -0.00581101 -0.00685 -0.0244488 
v -0.00588255 -0.00685 -0.024379 
v -0.0087083 -0.00685 -0.021619 
v -0.00677678 -0.00685 -0.0235056 
vn -0.698737 4.37114e-08 -0.715379 
vn -0.698737 4.37114e-08 -0.715379 
vn -0.698737 4.37114e-08 -0.715379 
vn -0.698737 4.37114e-08 -0.715379 
vn -0.698737 4.37114e-08 -0.715379 
vn -0.698737 4.37114e-08 -0.715379 
vn -0.698737 4.37114e-08 -0.715379 
vn -0.698737 4.37114e-08 -0.715379 
vn -0.698737 4.37114e-08 -0.715379 
vn -0.698737 4.37114e-08 -0.715379 
vn -0.698737 4.37114e-08 -0.715379 
vn -0.698737 4.37114e-08 -0.715379 
vn -0.698737 4.37114e-08 -0.715379 
vn -0.698737 4.37114e-08 -0.715379 
vn -0.698737 4.37114e-08 -0.715379 
vn -0.698737 4.37114e-08 -0.715379 
vn -0.698737 4.37114e-08 -0.715379 
vn -0.698737 4.37114e-08 -0.715379 
vn -0.698737 4.37114e-08 -0.715379 
vn -0.698737 4.37114e-08 -0.715379 
vn -0.698737 4.37114e-08 -0.715379 
vn -0.698737 4.37114e-08 -0.715379 
vn -0.698737 4.37114e-08 -0.715379 
vn -0.698737 4.37114e-08 -0.715379 
vn -0.698737 4.37114e-08 -0.715379 
vn -0.698737 4.37114e-08 -0.715379 
vn -0.698737 4.37114e-08 -0.715379 
vn -0.698737 4.37114e-08 -0.715379 
vn -0.698737 4.37114e-08 -0.715379 
vn -0.698737 4.37114e-08 -0.715379 
vn -0.698737 4.37114e-08 -0.715379 
vn -0.698737 4.37114e-08 -0.715379 
vn -0.698737 4.37114e-08 -0.715379 
vn -0.698737 4.37114e-08 -0.715379 
vn -0.698737 4.37114e-08 -0.715379 
vn -0.698737 4.37114e-08 -0.715379 
vn -0.698737 4.37114e-08 -0.715379 
vn -0.698737 4.37114e-08 -0.715379 
vn -0.698737 4.37114e-08 -0.715379 
vn -0.698737 4.37114e-08 -0.715379 
vn -0.698737 4.37114e-08 -0.715379 
vn -0.698737 4.37114e-08 -0.715379 
vn -0.698737 4.37114e-08 -0.715379 
vn -0.698737 4.37114e-08 -0.715379 
vn -0.698737 4.37114e-08 -0.715379 
vn -0.698737 4.37114e-08 -0.715379 
vn -0.698737 4.37114e-08 -0.715379 
vn -0.698737 4.37114e-08 -0.715379 
vn -0.698737 4.37114e-08 -0.715379 
vn -0.698737 4.37114e-08 -0.715379 
vn -0.698737 4.37114e-08 -0.715379 
vn -0.698737 4.37114e-08 -0.715379 
vn -0.698737 4.37114e-08 -0.715379 
vn -0.698737 4.37114e-08 -0.715379 
vn -0.698737 4.37114e-08 -0.715379 
vn -0.698737 4.37114e-08 -0.715379 
vn -0.698737 4.37114e-08 -0.715379 
vn -0.698737 4.37114e-08 -0.715379 
vn -0.698737 4.37114e-08 -0.715379 
vn -0.698737 4.37114e-08 -0.715379 
vn -0.698737 4.37114e-08 -0.715379 
vn -0.698737 4.37114e-08 -0.715379 
vn -0.698737 4.37114e-08 -0.715379 
vn -0.698737 4.37114e-08 -0.715379 
f 5//5 6//6 7//7 
f 7//7 8//8 5//5 
f 8//8 9//9 5//5 
f 5//5 10//10 11//11 
f 12//12 13//13 14//14 
f 15//15 11//11 13//13 
f 11//11 15//15 5//5 
f 6//6 16//16 17//17 
f 13//13 12//12 15//15 
f 17//17 7//7 6//6 
f 9//9 10//10 5//5 
f 18//18 19//19 12//12 
f 20//20 21//21 19//19 
f 22//22 5//5 15//15 
f 5//5 23//23 24//24 
f 5//5 25//25 26//26 
f 12//12 27//27 18//18 
f 28//28 29//29 30//30 
f 30//30 29//29 14//14 
f 18//18 31//31 20//20 
f 15//15 21//21 22//22 
f 24//24 32//32 5//5 
f 26//26 33//33 5//5 
f 5//5 34//34 6//6 
f 14//14 13//13 30//30 
f 21//21 20//20 22//22 
f 33//33 23//23 5//5 
f 30//30 35//35 28//28 
f 20//20 36//36 22//22 
f 32//32 37//37 34//34 
f 24//24 23//23 38//38 
f 19//19 18//18 20//20 
f 38//38 39//39 24//24 
f 32//32 34//34 5//5 
f 40//40 41//41 25//25 
f 36//36 42//42 43//43 
f 26//26 44//44 33//33 
f 25//25 45//45 40//40 
f 5//5 46//46 47//47 
f 36//36 48//48 42//42 
f 48//48 49//49 50//50 
f 14//14 27//27 12//12 
f 47//47 45//45 5//5 
f 51//51 47//47 46//46 
f 52//52 53//53 54//54 
f 43//43 55//55 56//56 
f 35//35 56//56 57//57 
f 55//55 58//58 57//57 
f 43//43 52//52 36//36 
f 50//50 42//42 48//48 
f 26//26 59//59 44//44 
f 46//46 60//60 51//51 
f 61//61 54//54 62//62 
f 54//54 61//61 52//52 
f 56//56 63//63 43//43 
f 57//57 56//56 55//55 
f 48//48 64//64 49//49 
f 49//49 58//58 55//55 
f 25//25 5//5 45//45 
f 65//65 9//9 8//8 
f 52//52 61//61 46//46 
f 52//52 63//63 53//53 
f 57//57 28//28 35//35 
f 55//55 50//50 49//49 
f 8//8 66//66 65//65 
f 62//62 67//67 61//61 
f 36//36 20//20 48//48 
f 46//46 5//5 52//52 
f 32//32 68//68 37//37 
f 63//63 52//52 43//43 
o mesh528
v -0.00454581 -0.00685 -0.0207921 
v -0.00699139 -0.00685 -0.0232959 
v -0.00699139 -0.00705 -0.0232959 
v -0.00454581 -0.00705 -0.0207921 
vn -0.715379 -7.88861e-31 0.698737 
vn -0.715379 -7.88861e-31 0.698737 
vn -0.715379 -7.88861e-31 0.698737 
vn -0.715379 -7.88861e-31 0.698737 
f 69//69 70//70 71//71 
f 71//71 72//72 69//69 
o mesh529
v -0.0091733 -0.00835 -0.0211648 
v -0.0091733 -0.00895 -0.0211648 
v -0.00634341 -0.00895 -0.0182675 
v -0.00634341 -0.00835 -0.0182675 
vn -0.715379 -7.88861e-31 0.698737 
vn -0.715379 -7.88861e-31 0.698737 
vn -0.715379 -7.88861e-31 0.698737 
vn -0.715379 -7.88861e-31 0.698737 
f 73//73 74//74 75//75 
f 75//75 76//76 73//73 
o mesh530
v -0.00515388 -0.00705 -0.0201982 
v -0.00454581 -0.00705 -0.0207921 
v -0.00699139 -0.00705 -0.0232959 
v -0.00759946 -0.00705 -0.022702 
vn 3.05428e-08 1 3.12702e-08 
vn 3.05428e-08 1 3.12702e-08 
vn 3.05428e-08 1 3.12702e-08 
vn 3.05428e-08 1 3.12702e-08 
f 77//77 78//78 79//79 
f 79//79 80//80 77//77 
o mesh531
v -0.00691985 -0.00685 -0.0233658 
v -0.00699139 -0.00685 -0.0232959 
v -0.00479586 -0.00685 -0.0211769 
v -0.00454581 -0.00685 -0.0207921 
v -0.00448143 -0.00685 -0.020855 
v -0.0047887 -0.00685 -0.0211839 
vn 3.05428e-08 1 3.12702e-08 
vn 3.05428e-08 1 3.12702e-08 
vn 3.05428e-08 1 3.12702e-08 
vn 3.05428e-08 1 3.12702e-08 
vn 3.05428e-08 1 3.12702e-08 
vn 3.05428e-08 1 3.12702e-08 
f 81//81 82//82 83//83 
f 84//84 85//85 83//83 
f 83//83 82//82 84//84 
f 83//83 86//86 81//81 
o mesh532
v -0.00634341 -0.00895 -0.0182675 
v -0.0091733 -0.00895 -0.0211648 
v -0.00813351 -0.00895 -0.0193847 
v -0.00988867 -0.00895 -0.020466 
v -0.0084912 -0.00895 -0.0190353 
v -0.0067011 -0.00895 -0.0179181 
vn 3.05428e-08 1 3.12702e-08 
vn 3.05428e-08 1 3.12702e-08 
vn 3.05428e-08 1 3.12702e-08 
vn 3.05428e-08 1 3.12702e-08 
vn 3.05428e-08 1 3.12702e-08 
vn 3.05428e-08 1 3.12702e-08 
f 87//87 88//88 89//89 
f 90//90 91//91 89//89 
f 89//89 88//88 90//90 
f 89//89 92//92 87//87 
o mesh533
v -0.00988867 -0.00835 -0.020466 
v -0.0091733 -0.00835 -0.0211648 
v -0.00813351 -0.00835 -0.0193847 
v -0.00634341 -0.00835 -0.0182675 
v -0.0067011 -0.00835 -0.0179181 
v -0.0084912 -0.00835 -0.0190353 
vn -3.05428e-08 -1 -3.12702e-08 
vn -3.05428e-08 -1 -3.12702e-08 
vn -3.05428e-08 -1 -3.12702e-08 
vn -3.05428e-08 -1 -3.12702e-08 
vn -3.05428e-08 -1 -3.12702e-08 
vn -3.05428e-08 -1 -3.12702e-08 
f 93//93 94//94 95//95 
f 96//96 97//97 95//95 
f 95//95 94//94 96//96 
f 95//95 98//98 93//93 
o mesh534
v -0.00658464 -0.00775 -0.0188007 
v -0.00903022 -0.00775 -0.0213045 
v -0.00953098 -0.00775 -0.0208154 
v -0.00708541 -0.00775 -0.0183116 
vn 3.05428e-08 1 3.12702e-08 
vn 3.05428e-08 1 3.12702e-08 
vn 3.05428e-08 1 3.12702e-08 
vn 3.05428e-08 1 3.12702e-08 
f 99//99 100//100 101//101 
f 101//101 102//102 99//99 
o mesh535
v -0.00658464 -0.00705 -0.0188007 
v -0.00633426 -0.00705 -0.0190453 
v -0.00877984 -0.00705 -0.0215491 
v -0.00903022 -0.00705 -0.0213045 
vn 3.05428e-08 1 3.12702e-08 
vn 3.05428e-08 1 3.12702e-08 
vn 3.05428e-08 1 3.12702e-08 
vn 3.05428e-08 1 3.12702e-08 
f 103//103 104//104 105//105 
f 105//105 106//106 103//103 
o mesh536
v -0.00788561 -0.00705 -0.0224225 
v -0.00849369 -0.00705 -0.0218286 
v -0.00604811 -0.00705 -0.0193248 
v -0.00544003 -0.00705 -0.0199187 
vn 3.05428e-08 1 3.12702e-08 
vn 3.05428e-08 1 3.12702e-08 
vn 3.05428e-08 1 3.12702e-08 
vn 3.05428e-08 1 3.12702e-08 
f 107//107 108//108 109//109 
f 109//109 110//110 107//107 
o mesh537
v -0.00609717 -0.00705 -0.0241694 
v -0.00670524 -0.00705 -0.0235754 
v -0.00425966 -0.00705 -0.0210716 
v -0.00365159 -0.00705 -0.0216655 
vn 3.05428e-08 1 3.12702e-08 
vn 3.05428e-08 1 3.12702e-08 
vn 3.05428e-08 1 3.12702e-08 
vn 3.05428e-08 1 3.12702e-08 
f 111//111 112//112 113//113 
f 113//113 114//114 111//111 
o mesh538
v -0.00602563 -0.00685 -0.0242392 
v -0.00609717 -0.00685 -0.0241694 
v -0.00390163 -0.00685 -0.0220503 
v -0.00365159 -0.00685 -0.0216655 
v -0.0035872 -0.00685 -0.0217284 
v -0.00389448 -0.00685 -0.0220573 
vn 3.05428e-08 1 3.12702e-08 
vn 3.05428e-08 1 3.12702e-08 
vn 3.05428e-08 1 3.12702e-08 
vn 3.05428e-08 1 3.12702e-08 
vn 3.05428e-08 1 3.12702e-08 
vn 3.05428e-08 1 3.12702e-08 
f 115//115 116//116 117//117 
f 118//118 119//119 117//117 
f 117//117 116//116 118//118 
f 117//117 120//120 115//115 
o mesh539
v -0.00336544 -0.00705 -0.021945 
v -0.00311505 -0.00705 -0.0221896 
v -0.00556063 -0.00705 -0.0246934 
v -0.00581101 -0.00705 -0.0244488 
vn 3.05428e-08 1 3.12702e-08 
vn 3.05428e-08 1 3.12702e-08 
vn 3.05428e-08 1 3.12702e-08 
vn 3.05428e-08 1 3.12702e-08 
f 121//121 122//122 123//123 
f 123//123 124//124 121//121 
o mesh540
v -0.00311505 -0.00775 -0.0221896 
v -0.00261429 -0.00775 -0.0226787 
v -0.00505987 -0.00775 -0.0251825 
v -0.00556063 -0.00775 -0.0246934 
vn 3.05428e-08 1 3.12702e-08 
vn 3.05428e-08 1 3.12702e-08 
vn 3.05428e-08 1 3.12702e-08 
vn 3.05428e-08 1 3.12702e-08 
f 125//125 126//126 127//127 
f 127//127 128//128 125//125 
o mesh541
v -0.00470218 -0.00895 -0.0255319 
v -0.00541756 -0.00895 -0.0248332 
v -0.00366239 -0.00895 -0.0237518 
v -0.00258767 -0.00895 -0.0219359 
v -0.00222998 -0.00895 -0.0222852 
v -0.0033047 -0.00895 -0.0241011 
vn 3.05428e-08 1 3.12702e-08 
vn 3.05428e-08 1 3.12702e-08 
vn 3.05428e-08 1 3.12702e-08 
vn 3.05428e-08 1 3.12702e-08 
vn 3.05428e-08 1 3.12702e-08 
vn 3.05428e-08 1 3.12702e-08 
f 129//129 130//130 131//131 
f 132//132 133//133 131//131 
f 131//131 130//130 132//132 
f 131//131 134//134 129//129 
o mesh542
v -0.00258767 -0.00835 -0.0219359 
v -0.00541756 -0.00835 -0.0248332 
v -0.00366239 -0.00835 -0.0237518 
v -0.00470218 -0.00835 -0.0255319 
v -0.0033047 -0.00835 -0.0241011 
v -0.00222998 -0.00835 -0.0222852 
vn -3.05428e-08 -1 -3.12702e-08 
vn -3.05428e-08 -1 -3.12702e-08 
vn -3.05428e-08 -1 -3.12702e-08 
vn -3.05428e-08 -1 -3.12702e-08 
vn -3.05428e-08 -1 -3.12702e-08 
vn -3.05428e-08 -1 -3.12702e-08 
f 135//135 136//136 137//137 
f 138//138 139//139 137//137 
f 137//137 136//136 138//138 
f 137//137 140//140 135//135 
o mesh543
v -0.00294536 -0.00895 -0.0215865 
v -0.00577524 -0.00895 -0.0244838 
v -0.00881561 -0.00895 -0.0215142 
v -0.00598572 -0.00895 -0.0186169 
vn 3.05428e-08 1 3.12702e-08 
vn 3.05428e-08 1 3.12702e-08 
vn 3.05428e-08 1 3.12702e-08 
vn 3.05428e-08 1 3.12702e-08 
f 141//141 142//142 143//143 
f 143//143 144//144 141//141 
o mesh544
v -0.0102464 -0.0072 -0.0201167 
v -0.00968737 -0.0072 -0.0195444 
v -0.00932969 -0.0072 -0.0198937 
v -0.00988867 -0.0072 -0.020466 
vn 3.05428e-08 1 3.12702e-08 
vn 3.05428e-08 1 3.12702e-08 
vn 3.05428e-08 1 3.12702e-08 
vn 3.05428e-08 1 3.12702e-08 
f 145//145 146//146 147//147 
f 147//147 148//148 145//145 
o mesh545
v -0.00932969 -0.0072 -0.0198937 
v -0.00968737 -0.0072 -0.0195444 
v -0.00968737 -0.0062 -0.0195444 
v -0.00932969 -0.0062 -0.0198937 
vn -0.698737 4.37114e-08 -0.715379 
vn -0.698737 4.37114e-08 -0.715379 
vn -0.698737 4.37114e-08 -0.715379 
vn -0.698737 4.37114e-08 -0.715379 
f 149//149 150//150 151//151 
f 151//151 152//152 149//149 
o mesh546
v -0.00968737 -0.0072 -0.0195444 
v -0.00776585 -0.0062 -0.0175771 
v -0.00849952 -0.0062 -0.0183282 
v -0.00881395 -0.00865 -0.0186502 
v -0.00776585 -0.00865 -0.0175771 
v -0.00776585 -0.00745 -0.0175771 
v -0.00968737 -0.0062 -0.0195444 
v -0.0102464 -0.00945 -0.0201167 
v -0.00849952 -0.0052 -0.0183282 
v -0.00741648 -0.00745 -0.0172194 
v -0.00741648 -0.0062 -0.0172194 
v -0.00881395 -0.00945 -0.0186502 
v -0.00776585 -0.0052 -0.0175771 
v -0.0102464 -0.0072 -0.0201167 
vn -0.715379 -7.88861e-31 0.698737 
vn -0.715379 -7.88861e-31 0.698737 
vn -0.715379 -7.88861e-31 0.698737 
vn -0.715379 -7.88861e-31 0.698737 
vn -0.715379 -7.88861e-31 0.698737 
vn -0.715379 -7.88861e-31 0.698737 
vn -0.715379 -7.88861e-31 0.698737 
vn -0.715379 -7.88861e-31 0.698737 
vn -0.715379 -7.88861e-31 0.698737 
vn -0.715379 -7.88861e-31 0.698737 
vn -0.715379 -7.88861e-31 0.698737 
vn -0.715379 -7.88861e-31 0.698737 
vn -0.715379 -7.88861e-31 0.698737 
vn -0.715379 -7.88861e-31 0.698737 
f 153//153 154//154 155//155 
f 156//156 157//157 158//158 
f 155//155 159//159 153//153 
f 154//154 160//160 156//156 
f 153//153 160//160 154//154 
f 161//161 155//155 154//154 
f 162//162 163//163 154//154 
f 160//160 164//164 156//156 
f 154//154 165//165 161//161 
f 158//158 154//154 156//156 
f 154//154 158//158 162//162 
f 153//153 166//166 160//160 
o mesh547
v -0.00968737 -0.0062 -0.0195444 
v -0.00849952 -0.0062 -0.0183282 
v -0.00814183 -0.0062 -0.0186776 
v -0.00932969 -0.0062 -0.0198937 
vn 3.05428e-08 1 3.12702e-08 
vn 3.05428e-08 1 3.12702e-08 
vn 3.05428e-08 1 3.12702e-08 
vn 3.05428e-08 1 3.12702e-08 
f 167//167 168//168 169//169 
f 169//169 170//170 167//167 
o mesh548
v -0.00849952 -0.0052 -0.0183282 
v -0.00814183 -0.0052 -0.0186776 
v -0.00814183 -0.0062 -0.0186776 
v -0.00849952 -0.0062 -0.0183282 
vn -0.698737 4.37114e-08 -0.715379 
vn -0.698737 4.37114e-08 -0.715379 
vn -0.698737 4.37114e-08 -0.715379 
vn -0.698737 4.37114e-08 -0.715379 
f 171//171 172//172 173//173 
f 173//173 174//174 171//171 
o mesh549
v -0.0037855 -0.0072 -0.025309 
v -0.00434449 -0.0072 -0.0258813 
v -0.00470218 -0.0072 -0.0255319 
v -0.00414319 -0.0072 -0.0249596 
vn 3.05428e-08 1 3.12702e-08 
vn 3.05428e-08 1 3.12702e-08 
vn 3.05428e-08 1 3.12702e-08 
vn 3.05428e-08 1 3.12702e-08 
f 175//175 176//176 177//177 
f 177//177 178//178 175//175 
o mesh550
v -0.00291208 -0.00865 -0.0244147 
v -0.00186397 -0.0062 -0.0233417 
v -0.00186397 -0.00745 -0.0233417 
v -0.0037855 -0.0072 -0.025309 
v -0.0037855 -0.0062 -0.025309 
v -0.00259765 -0.0062 -0.0240928 
v -0.00186397 -0.00865 -0.0233417 
v -0.00434449 -0.00945 -0.0258813 
v -0.0015146 -0.0062 -0.022984 
v -0.0015146 -0.00745 -0.022984 
v -0.00259765 -0.0052 -0.0240928 
v -0.00434449 -0.0072 -0.0258813 
v -0.00186397 -0.0052 -0.0233417 
v -0.00291208 -0.00945 -0.0244147 
vn 0.715379 7.88861e-31 -0.698737 
vn 0.715379 7.88861e-31 -0.698737 
vn 0.715379 7.88861e-31 -0.698737 
vn 0.715379 7.88861e-31 -0.698737 
vn 0.715379 7.88861e-31 -0.698737 
vn 0.715379 7.88861e-31 -0.698737 
vn 0.715379 7.88861e-31 -0.698737 
vn 0.715379 7.88861e-31 -0.698737 
vn 0.715379 7.88861e-31 -0.698737 
vn 0.715379 7.88861e-31 -0.698737 
vn 0.715379 7.88861e-31 -0.698737 
vn 0.715379 7.88861e-31 -0.698737 
vn 0.715379 7.88861e-31 -0.698737 
vn 0.715379 7.88861e-31 -0.698737 
f 179//179 180//180 181//181 
f 182//182 183//183 184//184 
f 181//181 185//185 179//179 
f 180//180 186//186 182//182 
f 179//179 186//186 180//180 
f 187//187 188//188 181//181 
f 180//180 184//184 189//189 
f 186//186 190//190 182//182 
f 181//181 180//180 187//187 
f 184//184 180//180 182//182 
f 189//189 191//191 180//180 
f 179//179 192//192 186//186 
o mesh551
v -0.0037855 -0.0072 -0.025309 
v -0.00414319 -0.0072 -0.0249596 
v -0.00414319 -0.0062 -0.0249596 
v -0.0037855 -0.0062 -0.025309 
vn -0.698737 4.37114e-08 -0.715379 
vn -0.698737 4.37114e-08 -0.715379 
vn -0.698737 4.37114e-08 -0.715379 
vn -0.698737 4.37114e-08 -0.715379 
f 193//193 194//194 195//195 
f 195//195 196//196 193//193 
o mesh552
v -0.00295533 -0.0062 -0.0237434 
v -0.00259765 -0.0062 -0.0240928 
v -0.0037855 -0.0062 -0.025309 
v -0.00414319 -0.0062 -0.0249596 
vn 3.05428e-08 1 3.12702e-08 
vn 3.05428e-08 1 3.12702e-08 
vn 3.05428e-08 1 3.12702e-08 
vn 3.05428e-08 1 3.12702e-08 
f 197//197 198//198 199//199 
f 199//199 200//200 197//197 
o mesh553
v -0.00845253 -0.00745 -0.0211424 
v -0.00881561 -0.00715 -0.0215142 
v -0.00577524 -0.00715 -0.0244838 
v -0.00541217 -0.00745 -0.0241121 
vn -0.349368 -0.866025 -0.35769 
vn -0.349368 -0.866025 -0.35769 
vn -0.349368 -0.866025 -0.35769 
vn -0.349368 -0.866025 -0.35769 
f 201//201 202//202 203//203 
f 203//203 204//204 201//201 
o mesh554
v -0.00598572 -0.00745 -0.0186169 
v -0.00671107 -0.00745 -0.0200751 
v -0.00438609 -0.00745 -0.022346 
v -0.00845253 -0.00745 -0.0211424 
v -0.00775918 -0.00745 -0.0211481 
v -0.00541217 -0.00745 -0.0241121 
v -0.0054342 -0.00745 -0.023419 
v -0.00294536 -0.00745 -0.0215865 
vn -3.05428e-08 -1 -3.12702e-08 
vn -3.05428e-08 -1 -3.12702e-08 
vn -3.05428e-08 -1 -3.12702e-08 
vn -3.05428e-08 -1 -3.12702e-08 
vn -3.05428e-08 -1 -3.12702e-08 
vn -3.05428e-08 -1 -3.12702e-08 
vn -3.05428e-08 -1 -3.12702e-08 
vn -3.05428e-08 -1 -3.12702e-08 
f 205//205 206//206 207//207 
f 208//208 209//209 206//206 
f 206//206 205//205 208//208 
f 210//210 211//211 209//209 
f 210//210 212//212 207//207 
f 209//209 208//208 210//210 
f 207//207 212//212 205//205 
f 207//207 211//211 210//210 
o mesh555
v -0.00671107 -0.00795 -0.0200751 
v -0.00775918 -0.00745 -0.0211481 
v -0.0054342 -0.00745 -0.023419 
v -0.00438609 -0.00795 -0.022346 
vn -0.22096 -0.948683 -0.226223 
vn -0.22096 -0.948683 -0.226223 
vn -0.22096 -0.948683 -0.226223 
vn -0.22096 -0.948683 -0.226223 
f 213//213 214//214 215//215 
f 215//215 216//216 213//213 
