# OBJ generated by ONSHAPE BY PTC INC, 1.216 Units = meters
mtllib AK40_10_KV170_41.mtl
g AK40-10 KV170
usemtl 0.910000_0.910000_0.910000_0.000000_0.000000
o mesh598
v -0.0239128 -0.0061 -0.00663064 
v -0.0237698 -0.0061 -0.00677038 
v -0.0216386 -0.0061 -0.00458848 
v -0.0217817 -0.0061 -0.00444873 
vn -3.05428e-08 -1 -3.12702e-08 
vn -3.05428e-08 -1 -3.12702e-08 
vn -3.05428e-08 -1 -3.12702e-08 
vn -3.05428e-08 -1 -3.12702e-08 
f 1//1 2//2 3//3 
f 3//3 4//4 1//1 
o mesh599
v -0.0237698 -0.0061 -0.00677038 
v -0.0239128 -0.0061 -0.00663064 
v -0.0242622 -0.00565475 -0.00698833 
v -0.0241191 -0.00565475 -0.00712807 
vn -0.464683 -0.746813 -0.475751 
vn -0.464683 -0.746813 -0.475751 
vn -0.464683 -0.746813 -0.475751 
vn -0.464683 -0.746813 -0.475751 
f 5//5 6//6 7//7 
f 7//7 8//8 5//5 
o mesh600
v -0.0241191 -0.0056 -0.00712807 
v -0.0241191 -0.00565475 -0.00712807 
v -0.0242622 -0.00565475 -0.00698833 
v -0.0242622 -0.0056 -0.00698833 
vn -0.698737 4.37114e-08 -0.715379 
vn -0.698737 4.37114e-08 -0.715379 
vn -0.698737 4.37114e-08 -0.715379 
vn -0.698737 4.37114e-08 -0.715379 
f 9//9 10//10 11//11 
f 11//11 12//12 9//9 
