# OBJ generated by ONSHAPE BY PTC INC, 1.216 Units = meters
mtllib AK40_10_KV170_7.mtl
g AK40-10 KV170
usemtl 0.910000_0.910000_0.910000_0.000000_0.000000
o mesh371
v -0.0231534 -0.00695 -0.00807137 
v -0.0207078 -0.00695 -0.00556754 
v -0.0200997 -0.00695 -0.00616147 
v -0.0225453 -0.00695 -0.00866529 
vn 3.05428e-08 1 3.12702e-08 
vn 3.05428e-08 1 3.12702e-08 
vn 3.05428e-08 1 3.12702e-08 
vn 3.05428e-08 1 3.12702e-08 
f 1//1 2//2 3//3 
f 3//3 4//4 1//1 
o mesh372
v -0.0222234 -0.00705 -0.00897973 
v -0.0234395 -0.00695 -0.00779187 
v -0.023368 -0.00695 -0.00786175 
v -0.0232249 -0.00695 -0.00800149 
v -0.0243695 -0.00705 -0.00688352 
v -0.0245841 -0.00695 -0.0066739 
v -0.0243337 -0.00695 -0.00691845 
v -0.0247272 -0.00825 -0.00653415 
v -0.0254426 -0.00825 -0.00583541 
v -0.0250849 -0.00765 -0.00618478 
v -0.0250849 -0.00934 -0.00618478 
v -0.0243695 -0.00885 -0.00688352 
v -0.0222234 -0.00885 -0.00897973 
v -0.0225453 -0.00695 -0.00866529 
v -0.0224738 -0.00695 -0.00873517 
v -0.0231534 -0.00695 -0.00807137 
v -0.0240476 -0.00695 -0.00719795 
v -0.0242622 -0.00695 -0.00698833 
v -0.0241191 -0.00695 -0.00712807 
v -0.0243337 -0.00675 -0.00691845 
v -0.0211503 -0.00825 -0.0100278 
v -0.021508 -0.00765 -0.00967846 
v -0.0211503 -0.0071 -0.0100278 
v -0.0218657 -0.00825 -0.00932909 
v -0.0220088 -0.00765 -0.00918935 
v -0.0245841 -0.00765 -0.0066739 
v -0.0247272 -0.00885 -0.00653415 
v -0.0250849 -0.0056 -0.00618478 
v -0.0254426 -0.0071 -0.00583541 
v -0.0258003 -0.0071 -0.00548604 
v -0.0223307 -0.00675 -0.00887492 
v -0.0222591 -0.00675 -0.00894479 
v -0.0222591 -0.00695 -0.00894479 
v -0.0234395 -0.00675 -0.00779187 
v -0.023368 -0.00675 -0.00786175 
v -0.0207926 -0.00935 -0.0103772 
v -0.0211503 -0.00885 -0.0100278 
v -0.0220088 -0.00695 -0.00918935 
v -0.0254426 -0.00885 -0.00583541 
v -0.0223307 -0.00695 -0.00887492 
v -0.0242622 -0.00675 -0.00698833 
v -0.0240476 -0.00675 -0.00719795 
v -0.0207926 -0.0071 -0.0103772 
v -0.0254426 -0.0051 -0.00583541 
v -0.0211503 -0.0051 -0.0100278 
v -0.021508 -0.0056 -0.00967846 
v -0.021508 -0.00934 -0.00967846 
v -0.0218657 -0.00885 -0.00932909 
v -0.021508 -0.00935 -0.00967846 
v -0.0241191 -0.00675 -0.00712807 
v -0.0225453 -0.00675 -0.00866529 
v -0.0224738 -0.00675 -0.00873517 
v -0.0231534 -0.00675 -0.00807137 
v -0.0258003 -0.00935 -0.00548604 
v -0.0232249 -0.00675 -0.00800149 
v -0.0250849 -0.00935 -0.00618478 
vn -0.698737 4.37114e-08 -0.715379 
vn -0.698737 4.37114e-08 -0.715379 
vn -0.698737 4.37114e-08 -0.715379 
vn -0.698737 4.37114e-08 -0.715379 
vn -0.698737 4.37114e-08 -0.715379 
vn -0.698737 4.37114e-08 -0.715379 
vn -0.698737 4.37114e-08 -0.715379 
vn -0.698737 4.37114e-08 -0.715379 
vn -0.698737 4.37114e-08 -0.715379 
vn -0.698737 4.37114e-08 -0.715379 
vn -0.698737 4.37114e-08 -0.715379 
vn -0.698737 4.37114e-08 -0.715379 
vn -0.698737 4.37114e-08 -0.715379 
vn -0.698737 4.37114e-08 -0.715379 
vn -0.698737 4.37114e-08 -0.715379 
vn -0.698737 4.37114e-08 -0.715379 
vn -0.698737 4.37114e-08 -0.715379 
vn -0.698737 4.37114e-08 -0.715379 
vn -0.698737 4.37114e-08 -0.715379 
vn -0.698737 4.37114e-08 -0.715379 
vn -0.698737 4.37114e-08 -0.715379 
vn -0.698737 4.37114e-08 -0.715379 
vn -0.698737 4.37114e-08 -0.715379 
vn -0.698737 4.37114e-08 -0.715379 
vn -0.698737 4.37114e-08 -0.715379 
vn -0.698737 4.37114e-08 -0.715379 
vn -0.698737 4.37114e-08 -0.715379 
vn -0.698737 4.37114e-08 -0.715379 
vn -0.698737 4.37114e-08 -0.715379 
vn -0.698737 4.37114e-08 -0.715379 
vn -0.698737 4.37114e-08 -0.715379 
vn -0.698737 4.37114e-08 -0.715379 
vn -0.698737 4.37114e-08 -0.715379 
vn -0.698737 4.37114e-08 -0.715379 
vn -0.698737 4.37114e-08 -0.715379 
vn -0.698737 4.37114e-08 -0.715379 
vn -0.698737 4.37114e-08 -0.715379 
vn -0.698737 4.37114e-08 -0.715379 
vn -0.698737 4.37114e-08 -0.715379 
vn -0.698737 4.37114e-08 -0.715379 
vn -0.698737 4.37114e-08 -0.715379 
vn -0.698737 4.37114e-08 -0.715379 
vn -0.698737 4.37114e-08 -0.715379 
vn -0.698737 4.37114e-08 -0.715379 
vn -0.698737 4.37114e-08 -0.715379 
vn -0.698737 4.37114e-08 -0.715379 
vn -0.698737 4.37114e-08 -0.715379 
vn -0.698737 4.37114e-08 -0.715379 
vn -0.698737 4.37114e-08 -0.715379 
vn -0.698737 4.37114e-08 -0.715379 
vn -0.698737 4.37114e-08 -0.715379 
vn -0.698737 4.37114e-08 -0.715379 
vn -0.698737 4.37114e-08 -0.715379 
vn -0.698737 4.37114e-08 -0.715379 
vn -0.698737 4.37114e-08 -0.715379 
vn -0.698737 4.37114e-08 -0.715379 
f 5//5 6//6 7//7 
f 7//7 8//8 5//5 
f 9//9 10//10 11//11 
f 12//12 13//13 14//14 
f 15//15 16//16 17//17 
f 5//5 18//18 19//19 
f 8//8 20//20 5//5 
f 9//9 21//21 6//6 
f 9//9 22//22 23//23 
f 22//22 11//11 24//24 
f 11//11 22//22 9//9 
f 25//25 26//26 27//27 
f 28//28 29//29 26//26 
f 14//14 30//30 12//12 
f 16//16 31//31 12//12 
f 32//32 14//14 33//33 
f 13//13 34//34 33//33 
f 15//15 31//31 16//16 
f 35//35 36//36 37//37 
f 20//20 18//18 5//5 
f 6//6 38//38 39//39 
f 23//23 21//21 9//9 
f 9//9 30//30 10//10 
f 26//26 25//25 28//28 
f 40//40 41//41 25//25 
f 42//42 29//29 5//5 
f 12//12 9//9 16//16 
f 33//33 14//14 13//13 
f 17//17 5//5 28//28 
f 15//15 43//43 31//31 
f 37//37 44//44 35//35 
f 39//39 7//7 6//6 
f 24//24 45//45 22//22 
f 46//46 21//21 23//23 
f 25//25 47//47 40//40 
f 5//5 37//37 42//42 
f 48//48 49//49 50//50 
f 50//50 49//49 27//27 
f 51//51 15//15 52//52 
f 40//40 53//53 51//51 
f 33//33 48//48 32//32 
f 17//17 52//52 15//15 
f 19//19 44//44 5//5 
f 23//23 54//54 46//46 
f 29//29 28//28 5//5 
f 27//27 26//26 50//50 
f 51//51 41//41 40//40 
f 28//28 52//52 17//17 
f 6//6 5//5 9//9 
f 55//55 56//56 19//19 
f 50//50 32//32 48//48 
f 30//30 9//9 12//12 
f 19//19 18//18 55//55 
f 57//57 20//20 8//8 
f 58//58 43//43 15//15 
f 58//58 34//34 13//13 
f 52//52 41//41 51//51 
f 8//8 59//59 57//57 
f 13//13 43//43 58//58 
f 37//37 5//5 44//44 
f 27//27 47//47 25//25 
f 15//15 60//60 58//58 
o mesh373
v -0.0243337 -0.00695 -0.00691845 
v -0.0218882 -0.00695 -0.00441463 
v -0.0218882 -0.00675 -0.00441463 
v -0.0243337 -0.00675 -0.00691845 
vn -0.715379 -7.88861e-31 0.698737 
vn -0.715379 -7.88861e-31 0.698737 
vn -0.715379 -7.88861e-31 0.698737 
vn -0.715379 -7.88861e-31 0.698737 
f 61//61 62//62 63//63 
f 63//63 64//64 61//61 
o mesh374
v -0.0218882 -0.00695 -0.00441463 
v -0.0243337 -0.00695 -0.00691845 
v -0.0245841 -0.00695 -0.0066739 
v -0.0221385 -0.00695 -0.00417007 
vn 3.05428e-08 1 3.12702e-08 
vn 3.05428e-08 1 3.12702e-08 
vn 3.05428e-08 1 3.12702e-08 
vn 3.05428e-08 1 3.12702e-08 
f 65//65 66//66 67//67 
f 67//67 68//68 65//65 
o mesh375
v -0.0242622 -0.00675 -0.00698833 
v -0.0243337 -0.00675 -0.00691845 
v -0.0221382 -0.00675 -0.00479943 
v -0.0218882 -0.00675 -0.00441463 
v -0.0218238 -0.00675 -0.00447751 
v -0.0221311 -0.00675 -0.00480642 
vn 3.05428e-08 1 3.12702e-08 
vn 3.05428e-08 1 3.12702e-08 
vn 3.05428e-08 1 3.12702e-08 
vn 3.05428e-08 1 3.12702e-08 
vn 3.05428e-08 1 3.12702e-08 
vn 3.05428e-08 1 3.12702e-08 
f 69//69 70//70 71//71 
f 72//72 73//73 71//71 
f 71//71 70//70 72//72 
f 71//71 74//74 69//69 
o mesh376
v -0.0226393 -0.0056 -0.00368095 
v -0.0250849 -0.0056 -0.00618478 
v -0.021508 -0.0056 -0.00967846 
v -0.0190624 -0.0056 -0.00717464 
vn -3.05428e-08 -1 -3.12702e-08 
vn -3.05428e-08 -1 -3.12702e-08 
vn -3.05428e-08 -1 -3.12702e-08 
vn -3.05428e-08 -1 -3.12702e-08 
f 75//75 76//76 77//77 
f 77//77 78//78 75//75 
o mesh377
v -0.0221385 -0.00765 -0.00417007 
v -0.0245841 -0.00765 -0.0066739 
v -0.0250849 -0.00765 -0.00618478 
v -0.0226393 -0.00765 -0.00368095 
vn 3.05428e-08 1 3.12702e-08 
vn 3.05428e-08 1 3.12702e-08 
vn 3.05428e-08 1 3.12702e-08 
vn 3.05428e-08 1 3.12702e-08 
f 79//79 80//80 81//81 
f 81//81 82//82 79//79 
o mesh378
v -0.021602 -0.00695 -0.00469412 
v -0.0209939 -0.00695 -0.00528805 
v -0.0234395 -0.00695 -0.00779187 
v -0.0240476 -0.00695 -0.00719795 
vn 3.05428e-08 1 3.12702e-08 
vn 3.05428e-08 1 3.12702e-08 
vn 3.05428e-08 1 3.12702e-08 
vn 3.05428e-08 1 3.12702e-08 
f 83//83 84//84 85//85 
f 85//85 86//86 83//83 
o mesh379
v -0.023368 -0.00675 -0.00786175 
v -0.0234395 -0.00675 -0.00779187 
v -0.021244 -0.00675 -0.00567285 
v -0.0209939 -0.00675 -0.00528805 
v -0.0209296 -0.00675 -0.00535093 
v -0.0212368 -0.00675 -0.00567984 
vn 3.05428e-08 1 3.12702e-08 
vn 3.05428e-08 1 3.12702e-08 
vn 3.05428e-08 1 3.12702e-08 
vn 3.05428e-08 1 3.12702e-08 
vn 3.05428e-08 1 3.12702e-08 
vn 3.05428e-08 1 3.12702e-08 
f 87//87 88//88 89//89 
f 90//90 91//91 89//89 
f 89//89 88//88 90//90 
f 89//89 92//92 87//87 
o mesh380
v -0.0224738 -0.00675 -0.00873517 
v -0.0225453 -0.00675 -0.00866529 
v -0.0203498 -0.00675 -0.00654627 
v -0.0200997 -0.00675 -0.00616147 
v -0.0200353 -0.00675 -0.00622435 
v -0.0203426 -0.00675 -0.00655326 
vn 3.05428e-08 1 3.12702e-08 
vn 3.05428e-08 1 3.12702e-08 
vn 3.05428e-08 1 3.12702e-08 
vn 3.05428e-08 1 3.12702e-08 
vn 3.05428e-08 1 3.12702e-08 
vn 3.05428e-08 1 3.12702e-08 
f 93//93 94//94 95//95 
f 96//96 97//97 95//95 
f 95//95 94//94 96//96 
f 95//95 98//98 93//93 
o mesh381
v -0.0195632 -0.00695 -0.00668552 
v -0.0220088 -0.00695 -0.00918935 
v -0.0222591 -0.00695 -0.00894479 
v -0.0198136 -0.00695 -0.00644096 
vn 3.05428e-08 1 3.12702e-08 
vn 3.05428e-08 1 3.12702e-08 
vn 3.05428e-08 1 3.12702e-08 
vn 3.05428e-08 1 3.12702e-08 
f 99//99 100//100 101//101 
f 101//101 102//102 99//99 
o mesh382
v -0.0195632 -0.00765 -0.00668552 
v -0.0190624 -0.00765 -0.00717464 
v -0.021508 -0.00765 -0.00967846 
v -0.0220088 -0.00765 -0.00918935 
vn 3.05428e-08 1 3.12702e-08 
vn 3.05428e-08 1 3.12702e-08 
vn 3.05428e-08 1 3.12702e-08 
vn 3.05428e-08 1 3.12702e-08 
f 103//103 104//104 105//105 
f 105//105 106//106 103//103 
o mesh383
v -0.0211503 -0.00885 -0.0100278 
v -0.0218657 -0.00885 -0.00932909 
v -0.0201105 -0.00885 -0.0082477 
v -0.0190358 -0.00885 -0.00643181 
v -0.0186781 -0.00885 -0.00678118 
v -0.0197528 -0.00885 -0.00859707 
vn 3.05428e-08 1 3.12702e-08 
vn 3.05428e-08 1 3.12702e-08 
vn 3.05428e-08 1 3.12702e-08 
vn 3.05428e-08 1 3.12702e-08 
vn 3.05428e-08 1 3.12702e-08 
vn 3.05428e-08 1 3.12702e-08 
f 107//107 108//108 109//109 
f 110//110 111//111 109//109 
f 109//109 108//108 110//110 
f 109//109 112//112 107//107 
o mesh384
v -0.0190358 -0.00825 -0.00643181 
v -0.0218657 -0.00825 -0.00932909 
v -0.0201105 -0.00825 -0.0082477 
v -0.0211503 -0.00825 -0.0100278 
v -0.0197528 -0.00825 -0.00859707 
v -0.0186781 -0.00825 -0.00678118 
vn -3.05428e-08 -1 -3.12702e-08 
vn -3.05428e-08 -1 -3.12702e-08 
vn -3.05428e-08 -1 -3.12702e-08 
vn -3.05428e-08 -1 -3.12702e-08 
vn -3.05428e-08 -1 -3.12702e-08 
vn -3.05428e-08 -1 -3.12702e-08 
f 113//113 114//114 115//115 
f 116//116 117//117 115//115 
f 115//115 114//114 116//116 
f 115//115 118//118 113//113 
o mesh385
v -0.0254426 -0.00825 -0.00583541 
v -0.0247272 -0.00825 -0.00653415 
v -0.0236874 -0.00825 -0.00475402 
v -0.0218973 -0.00825 -0.00363686 
v -0.022255 -0.00825 -0.00328749 
v -0.0240451 -0.00825 -0.00440465 
vn -3.05428e-08 -1 -3.12702e-08 
vn -3.05428e-08 -1 -3.12702e-08 
vn -3.05428e-08 -1 -3.12702e-08 
vn -3.05428e-08 -1 -3.12702e-08 
vn -3.05428e-08 -1 -3.12702e-08 
vn -3.05428e-08 -1 -3.12702e-08 
f 119//119 120//120 121//121 
f 122//122 123//123 121//121 
f 121//121 120//120 122//122 
f 121//121 124//124 119//119 
o mesh386
v -0.0218973 -0.00885 -0.00363686 
v -0.0247272 -0.00885 -0.00653415 
v -0.0236874 -0.00885 -0.00475402 
v -0.0254426 -0.00885 -0.00583541 
v -0.0240451 -0.00885 -0.00440465 
v -0.022255 -0.00885 -0.00328749 
vn 3.05428e-08 1 3.12702e-08 
vn 3.05428e-08 1 3.12702e-08 
vn 3.05428e-08 1 3.12702e-08 
vn 3.05428e-08 1 3.12702e-08 
vn 3.05428e-08 1 3.12702e-08 
vn 3.05428e-08 1 3.12702e-08 
f 125//125 126//126 127//127 
f 128//128 129//129 127//127 
f 127//127 126//126 128//128 
f 127//127 130//130 125//125 
o mesh387
v -0.0215396 -0.00885 -0.00398623 
v -0.0193935 -0.00885 -0.00608244 
v -0.0222234 -0.00885 -0.00897973 
v -0.0243695 -0.00885 -0.00688352 
vn 3.05428e-08 1 3.12702e-08 
vn 3.05428e-08 1 3.12702e-08 
vn 3.05428e-08 1 3.12702e-08 
vn 3.05428e-08 1 3.12702e-08 
f 131//131 132//132 133//133 
f 133//133 134//134 131//131 
o mesh388
v -0.0252413 -0.0071 -0.00491374 
v -0.0248836 -0.0071 -0.00526311 
v -0.0254426 -0.0071 -0.00583541 
v -0.0258003 -0.0071 -0.00548604 
vn 3.05428e-08 1 3.12702e-08 
vn 3.05428e-08 1 3.12702e-08 
vn 3.05428e-08 1 3.12702e-08 
vn 3.05428e-08 1 3.12702e-08 
f 135//135 136//136 137//137 
f 137//137 138//138 135//135 
o mesh389
v -0.0243679 -0.00855 -0.00401952 
v -0.0233198 -0.00735 -0.00294645 
v -0.0240534 -0.0061 -0.0036976 
v -0.0252413 -0.0061 -0.00491374 
v -0.0252413 -0.0071 -0.00491374 
v -0.0258003 -0.00935 -0.00548604 
v -0.0233198 -0.0051 -0.00294645 
v -0.0240534 -0.0051 -0.0036976 
v -0.0233198 -0.00855 -0.00294645 
v -0.0243679 -0.00935 -0.00401952 
v -0.0233198 -0.0061 -0.00294645 
v -0.0229704 -0.00735 -0.00258876 
v -0.0229704 -0.0061 -0.00258876 
v -0.0258003 -0.0071 -0.00548604 
vn -0.715379 -7.88861e-31 0.698737 
vn -0.715379 -7.88861e-31 0.698737 
vn -0.715379 -7.88861e-31 0.698737 
vn -0.715379 -7.88861e-31 0.698737 
vn -0.715379 -7.88861e-31 0.698737 
vn -0.715379 -7.88861e-31 0.698737 
vn -0.715379 -7.88861e-31 0.698737 
vn -0.715379 -7.88861e-31 0.698737 
vn -0.715379 -7.88861e-31 0.698737 
vn -0.715379 -7.88861e-31 0.698737 
vn -0.715379 -7.88861e-31 0.698737 
vn -0.715379 -7.88861e-31 0.698737 
vn -0.715379 -7.88861e-31 0.698737 
vn -0.715379 -7.88861e-31 0.698737 
f 139//139 140//140 141//141 
f 141//141 142//142 143//143 
f 144//144 139//139 143//143 
f 145//145 146//146 141//141 
f 139//139 147//147 140//140 
f 144//144 148//148 139//139 
f 141//141 140//140 149//149 
f 150//150 151//151 149//149 
f 143//143 152//152 144//144 
f 149//149 140//140 150//150 
f 141//141 149//149 145//145 
f 141//141 143//143 139//139 
o mesh390
v -0.0248836 -0.0071 -0.00526311 
v -0.0252413 -0.0071 -0.00491374 
v -0.0252413 -0.0061 -0.00491374 
v -0.0248836 -0.0061 -0.00526311 
vn -0.698737 4.37114e-08 -0.715379 
vn -0.698737 4.37114e-08 -0.715379 
vn -0.698737 4.37114e-08 -0.715379 
vn -0.698737 4.37114e-08 -0.715379 
f 153//153 154//154 155//155 
f 155//155 156//156 153//153 
o mesh391
v -0.0248836 -0.0061 -0.00526311 
v -0.0252413 -0.0061 -0.00491374 
v -0.0240534 -0.0061 -0.0036976 
v -0.0236957 -0.0061 -0.00404696 
vn 3.05428e-08 1 3.12702e-08 
vn 3.05428e-08 1 3.12702e-08 
vn 3.05428e-08 1 3.12702e-08 
vn 3.05428e-08 1 3.12702e-08 
f 157//157 158//158 159//159 
f 159//159 160//160 157//157 
o mesh392
v -0.0240064 -0.00735 -0.00651179 
v -0.0243695 -0.00705 -0.00688352 
v -0.0222234 -0.00705 -0.00897973 
v -0.0218603 -0.00735 -0.008608 
vn -0.349368 -0.866025 -0.35769 
vn -0.349368 -0.866025 -0.35769 
vn -0.349368 -0.866025 -0.35769 
vn -0.349368 -0.866025 -0.35769 
f 161//161 162//162 163//163 
f 163//163 164//164 161//161 
o mesh393
v -0.0193935 -0.00735 -0.00608244 
v -0.0215396 -0.00735 -0.00398623 
v -0.022265 -0.00735 -0.00544444 
v -0.0240064 -0.00735 -0.00651179 
v -0.0233131 -0.00735 -0.00651751 
v -0.0218603 -0.00735 -0.008608 
v -0.0208342 -0.00735 -0.00684191 
v -0.0218823 -0.00735 -0.00791498 
vn -3.05428e-08 -1 -3.12702e-08 
vn -3.05428e-08 -1 -3.12702e-08 
vn -3.05428e-08 -1 -3.12702e-08 
vn -3.05428e-08 -1 -3.12702e-08 
vn -3.05428e-08 -1 -3.12702e-08 
vn -3.05428e-08 -1 -3.12702e-08 
vn -3.05428e-08 -1 -3.12702e-08 
vn -3.05428e-08 -1 -3.12702e-08 
f 165//165 166//166 167//167 
f 168//168 169//169 167//167 
f 170//170 165//165 171//171 
f 167//167 166//166 168//168 
f 167//167 171//171 165//165 
f 168//168 170//170 172//172 
f 172//172 169//169 168//168 
f 171//171 172//172 170//170 
o mesh394
v -0.0208342 -0.00785 -0.00684191 
v -0.022265 -0.00785 -0.00544444 
v -0.0233131 -0.00735 -0.00651751 
v -0.0218823 -0.00735 -0.00791498 
vn -0.22096 -0.948683 -0.226223 
vn -0.22096 -0.948683 -0.226223 
vn -0.22096 -0.948683 -0.226223 
vn -0.22096 -0.948683 -0.226223 
f 173//173 174//174 175//175 
f 175//175 176//176 173//173 
o mesh395
v -0.0207926 -0.0071 -0.0103772 
v -0.0211503 -0.0071 -0.0100278 
v -0.0205913 -0.0071 -0.00945553 
v -0.0202336 -0.0071 -0.0098049 
vn 3.05428e-08 1 3.12702e-08 
vn 3.05428e-08 1 3.12702e-08 
vn 3.05428e-08 1 3.12702e-08 
vn 3.05428e-08 1 3.12702e-08 
f 177//177 178//178 179//179 
f 179//179 180//180 177//177 
o mesh396
v -0.0202336 -0.0071 -0.0098049 
v -0.0205913 -0.0071 -0.00945553 
v -0.0205913 -0.0061 -0.00945553 
v -0.0202336 -0.0061 -0.0098049 
vn -0.698737 4.37114e-08 -0.715379 
vn -0.698737 4.37114e-08 -0.715379 
vn -0.698737 4.37114e-08 -0.715379 
vn -0.698737 4.37114e-08 -0.715379 
f 181//181 182//182 183//183 
f 183//183 184//184 181//181 
o mesh397
v -0.0190458 -0.0061 -0.00858875 
v -0.0202336 -0.0061 -0.0098049 
v -0.0205913 -0.0061 -0.00945553 
v -0.0194035 -0.0061 -0.00823938 
vn 3.05428e-08 1 3.12702e-08 
vn 3.05428e-08 1 3.12702e-08 
vn 3.05428e-08 1 3.12702e-08 
vn 3.05428e-08 1 3.12702e-08 
f 185//185 186//186 187//187 
f 187//187 188//188 185//185 
