# OBJ generated by ONSHAPE BY PTC INC, 1.216 Units = meters
mtllib AK40_10_KV170_10.mtl
g AK40-10 KV170
usemtl 0.910000_0.910000_0.910000_0.000000_0.000000
o mesh402
v -0.00519048 -0.00655 -0.0200925 
v -0.00732163 -0.00655 -0.0222744 
v -0.00746471 -0.00655 -0.0221347 
v -0.00533356 -0.00655 -0.0199528 
vn 3.05428e-08 1 3.12702e-08 
vn 3.05428e-08 1 3.12702e-08 
vn 3.05428e-08 1 3.12702e-08 
vn 3.05428e-08 1 3.12702e-08 
f 1//1 2//2 3//3 
f 3//3 4//4 1//1 
o mesh403
v -0.00781408 -0.00699525 -0.0224924 
v -0.00746471 -0.00655 -0.0221347 
v -0.00732163 -0.00655 -0.0222744 
v -0.007671 -0.00699525 -0.0226321 
vn -0.464683 0.746814 -0.475751 
vn -0.464683 0.746814 -0.475751 
vn -0.464683 0.746814 -0.475751 
vn -0.464683 0.746814 -0.475751 
f 5//5 6//6 7//7 
f 7//7 8//8 5//5 
o mesh404
v -0.007671 -0.00705 -0.0226321 
v -0.00781408 -0.00705 -0.0224924 
v -0.00781408 -0.00699525 -0.0224924 
v -0.007671 -0.00699525 -0.0226321 
vn -0.698737 4.37114e-08 -0.715379 
vn -0.698737 4.37114e-08 -0.715379 
vn -0.698737 4.37114e-08 -0.715379 
vn -0.698737 4.37114e-08 -0.715379 
f 9//9 10//10 11//11 
f 11//11 12//12 9//9 
