# OBJ generated by ONSHAPE BY PTC INC, 1.216 Units = meters
mtllib AK40_10_KV170_6.mtl
g AK40-10 KV170
usemtl 0.910000_0.910000_0.910000_0.000000_0.000000
o mesh368
v -0.00622778 -0.00655 -0.0190794 
v -0.00608471 -0.00655 -0.0192191 
v -0.00821585 -0.00655 -0.021401 
v -0.00835893 -0.00655 -0.0212613 
vn 3.05428e-08 1 3.12702e-08 
vn 3.05428e-08 1 3.12702e-08 
vn 3.05428e-08 1 3.12702e-08 
vn 3.05428e-08 1 3.12702e-08 
f 1//1 2//2 3//3 
f 3//3 4//4 1//1 
o mesh369
v -0.00856522 -0.00699525 -0.0217587 
v -0.0087083 -0.00699525 -0.021619 
v -0.00835893 -0.00655 -0.0212613 
v -0.00821585 -0.00655 -0.021401 
vn -0.464683 0.746814 -0.475751 
vn -0.464683 0.746814 -0.475751 
vn -0.464683 0.746814 -0.475751 
vn -0.464683 0.746814 -0.475751 
f 5//5 6//6 7//7 
f 7//7 8//8 5//5 
o mesh370
v -0.0087083 -0.00705 -0.021619 
v -0.0087083 -0.00699525 -0.021619 
v -0.00856522 -0.00699525 -0.0217587 
v -0.00856522 -0.00705 -0.0217587 
vn -0.698737 4.37114e-08 -0.715379 
vn -0.698737 4.37114e-08 -0.715379 
vn -0.698737 4.37114e-08 -0.715379 
vn -0.698737 4.37114e-08 -0.715379 
f 9//9 10//10 11//11 
f 11//11 12//12 9//9 
