# OBJ generated by ONSHAPE BY PTC INC, 1.216 Units = meters
mtllib AK40_10_KV170_47.mtl
g AK40-10 KV170
usemtl 0.910000_0.910000_0.910000_0.000000_0.000000
o mesh670
v -0.0208875 -0.00645 -0.00532215 
v -0.0207444 -0.00645 -0.0054619 
v -0.0228755 -0.00645 -0.00764381 
v -0.0230186 -0.00645 -0.00750406 
vn 3.05428e-08 1 3.12702e-08 
vn 3.05428e-08 1 3.12702e-08 
vn 3.05428e-08 1 3.12702e-08 
vn 3.05428e-08 1 3.12702e-08 
f 1//1 2//2 3//3 
f 3//3 4//4 1//1 
o mesh671
v -0.0232249 -0.00689525 -0.00800149 
v -0.023368 -0.00689525 -0.00786175 
v -0.0230186 -0.00645 -0.00750406 
v -0.0228755 -0.00645 -0.00764381 
vn -0.464683 0.746814 -0.475751 
vn -0.464683 0.746814 -0.475751 
vn -0.464683 0.746814 -0.475751 
vn -0.464683 0.746814 -0.475751 
f 5//5 6//6 7//7 
f 7//7 8//8 5//5 
