# OBJ generated by ONSHAPE BY PTC INC, 1.216 Units = meters
mtllib AK40_10_KV170_5.mtl
g AK40-10 KV170
usemtl 0.910000_0.910000_0.910000_0.000000_0.000000
o mesh367
v -0.00250109 -0.00344426 -0.0216011 
v -0.00244318 -0.00328349 -0.0216577 
v -0.00242763 -0.00329301 -0.0216729 
v -0.00252786 -0.00342281 -0.021575 
v -0.0024579 -0.0032717 -0.0216433 
v -0.00244338 -0.00347449 -0.0216575 
v -0.00241144 -0.00330012 -0.0216887 
v -0.00239479 -0.00330476 -0.021705 
v -0.00247282 -0.00346156 -0.0216287 
v -0.00255283 -0.00339746 -0.0215506 
v -0.00247163 -0.00325775 -0.0216299 
v -0.00241312 -0.00348293 -0.0216871 
v -0.00237789 -0.00330686 -0.0217215 
v -0.0025757 -0.00336849 -0.0215283 
v -0.00248421 -0.00324182 -0.0216176 
v -0.0025962 -0.00333625 -0.0215082 
v -0.00249549 -0.00322409 -0.0216066 
v -0.0026141 -0.00330111 -0.0214908 
v -0.00250533 -0.00320476 -0.021597 
v -0.00262919 -0.00326349 -0.021476 
v -0.00251363 -0.00318407 -0.0215889 
v -0.00264129 -0.00322381 -0.0214642 
v -0.00252029 -0.00316224 -0.0215824 
v -0.00276945 -0.0027316 -0.021339 
v -0.00264845 -0.00267003 -0.0214572 
v -0.00238238 -0.00348675 -0.0217171 
vn -0.698737 -8.74227e-08 -0.715379 
vn -0.698737 -8.74227e-08 -0.715379 
vn -0.698737 -8.74227e-08 -0.715379 
vn -0.698737 -8.74227e-08 -0.715379 
vn -0.698737 -8.74227e-08 -0.715379 
vn -0.698737 -8.74227e-08 -0.715379 
vn -0.698737 -8.74227e-08 -0.715379 
vn -0.698737 -8.74227e-08 -0.715379 
vn -0.698737 -8.74227e-08 -0.715379 
vn -0.698737 -8.74227e-08 -0.715379 
vn -0.698737 -8.74227e-08 -0.715379 
vn -0.698737 -8.74227e-08 -0.715379 
vn -0.698737 -8.74227e-08 -0.715379 
vn -0.698737 -8.74227e-08 -0.715379 
vn -0.698737 -8.74227e-08 -0.715379 
vn -0.698737 -8.74227e-08 -0.715379 
vn -0.698737 -8.74227e-08 -0.715379 
vn -0.698737 -8.74227e-08 -0.715379 
vn -0.698737 -8.74227e-08 -0.715379 
vn -0.698737 -8.74227e-08 -0.715379 
vn -0.698737 -8.74227e-08 -0.715379 
vn -0.698737 -8.74227e-08 -0.715379 
vn -0.698737 -8.74227e-08 -0.715379 
vn -0.698737 -8.74227e-08 -0.715379 
vn -0.698737 -8.74227e-08 -0.715379 
vn -0.698737 -8.74227e-08 -0.715379 
f 1//1 2//2 3//3 
f 4//4 5//5 2//2 
f 6//6 7//7 8//8 
f 9//9 3//3 7//7 
f 2//2 1//1 4//4 
f 10//10 11//11 5//5 
f 12//12 8//8 13//13 
f 7//7 6//6 9//9 
f 5//5 4//4 10//10 
f 14//14 15//15 11//11 
f 8//8 12//12 6//6 
f 11//11 10//10 14//14 
f 16//16 17//17 15//15 
f 18//18 19//19 17//17 
f 3//3 9//9 1//1 
f 17//17 16//16 18//18 
f 15//15 14//14 16//16 
f 20//20 21//21 19//19 
f 22//22 23//23 21//21 
f 24//24 25//25 23//23 
f 19//19 18//18 20//20 
f 23//23 22//22 24//24 
f 21//21 20//20 22//22 
f 13//13 26//26 12//12 
