# OBJ generated by ONSHAPE BY PTC INC, 1.216 Units = meters
mtllib AK40_10_KV170_3.mtl
g AK40-10 KV170
usemtl 0.910000_0.910000_0.910000_0.000000_0.000000
o mesh362
v -0.00383215 -0.00328496 -0.0231806 
v -0.00381679 -0.00328688 -0.0231956 
v -0.0041382 -0.00328688 -0.0235247 
v -0.00384729 -0.00328075 -0.0231659 
v -0.00415357 -0.00328496 -0.0235097 
v -0.003862 -0.00327428 -0.0231515 
v -0.0041687 -0.00328075 -0.0234949 
v -0.00387614 -0.00326563 -0.0231377 
v -0.00418342 -0.00327428 -0.0234805 
v -0.00388953 -0.00325491 -0.0231246 
v -0.00419756 -0.00326563 -0.0234667 
v -0.00390201 -0.00324223 -0.0231124 
v -0.00421095 -0.00325491 -0.0234537 
v -0.00391344 -0.00322775 -0.0231012 
v -0.00422343 -0.00324223 -0.0234415 
v -0.00392369 -0.00321163 -0.0230912 
v -0.00423486 -0.00322775 -0.0234303 
v -0.00393264 -0.00319406 -0.0230825 
v -0.00424511 -0.00321163 -0.0234203 
v -0.00394019 -0.00317524 -0.0230751 
v -0.00425406 -0.00319406 -0.0234116 
v -0.00394624 -0.0031554 -0.0230692 
v -0.00426161 -0.00317524 -0.0234042 
v -0.00426766 -0.0031554 -0.0233983 
vn 0.101809 0.989821 -0.0994407 
vn 0.0249663 0.999391 -0.0243856 
vn 0.0249663 0.999391 -0.0243856 
vn 0.177468 0.968741 -0.173339 
vn 0.101809 0.989821 -0.0994407 
vn 0.251062 0.936394 -0.245222 
vn 0.177468 0.968741 -0.173339 
vn 0.321737 0.893157 -0.314253 
vn 0.251062 0.936394 -0.245222 
vn 0.388671 0.839534 -0.379629 
vn 0.321737 0.893157 -0.314253 
vn 0.451084 0.776146 -0.44059 
vn 0.388671 0.839534 -0.379629 
vn 0.508251 0.703733 -0.496428 
vn 0.451084 0.776146 -0.44059 
vn 0.559508 0.623135 -0.546492 
vn 0.508251 0.703733 -0.496428 
vn 0.604258 0.535291 -0.5902 
vn 0.559508 0.623135 -0.546492 
vn 0.64198 0.441221 -0.627045 
vn 0.604258 0.535291 -0.5902 
vn 0.672236 0.34202 -0.656598 
vn 0.64198 0.441221 -0.627045 
vn 0.672236 0.34202 -0.656598 
f 1//1 2//2 3//3 
f 4//4 1//1 5//5 
f 6//6 4//4 7//7 
f 8//8 6//6 9//9 
f 10//10 8//8 11//11 
f 12//12 10//10 13//13 
f 14//14 12//12 15//15 
f 16//16 14//14 17//17 
f 18//18 16//16 19//19 
f 20//20 18//18 21//21 
f 22//22 20//20 23//23 
f 23//23 24//24 22//22 
f 21//21 23//23 20//20 
f 19//19 21//21 18//18 
f 17//17 19//19 16//16 
f 15//15 17//17 14//14 
f 13//13 15//15 12//12 
f 11//11 13//13 10//10 
f 9//9 11//11 8//8 
f 7//7 9//9 6//6 
f 5//5 7//7 4//4 
f 3//3 5//5 1//1 
o mesh363
v -0.0041382 -0.00328688 -0.0235247 
v -0.00381679 -0.00328688 -0.0231956 
v -0.00356098 -0.00329936 -0.0234455 
v -0.0038824 -0.00329936 -0.0237746 
vn 0.0249663 0.999391 -0.0243856 
vn 0.0249663 0.999391 -0.0243856 
vn 0.0249663 0.999391 -0.0243856 
vn 0.0249663 0.999391 -0.0243856 
f 25//25 26//26 27//27 
f 27//27 28//28 25//25 
o mesh364
v -0.00354718 -0.00332005 -0.023459 
v -0.0038686 -0.00332005 -0.023788 
v -0.00386863 -0.00331796 -0.023788 
v -0.00354721 -0.00331796 -0.0234589 
v -0.00386881 -0.00331588 -0.0237878 
v -0.00354739 -0.00331588 -0.0234588 
v -0.00386915 -0.00331384 -0.0237875 
v -0.00354773 -0.00331384 -0.0234584 
v -0.00386963 -0.00331186 -0.023787 
v -0.00354821 -0.00331186 -0.023458 
v -0.00387027 -0.00330996 -0.0237864 
v -0.00354885 -0.00330996 -0.0234573 
v -0.00387104 -0.00330817 -0.0237857 
v -0.00354962 -0.00330817 -0.0234566 
v -0.00387194 -0.0033065 -0.0237848 
v -0.00355052 -0.0033065 -0.0234557 
v -0.00387296 -0.00330496 -0.0237838 
v -0.00355154 -0.00330496 -0.0234547 
v -0.00387409 -0.00330359 -0.0237827 
v -0.00355267 -0.00330359 -0.0234536 
v -0.00387532 -0.00330239 -0.0237815 
v -0.0035539 -0.00330239 -0.0234524 
v -0.00387663 -0.00330138 -0.0237802 
v -0.00355521 -0.00330138 -0.0234511 
v -0.00387801 -0.00330056 -0.0237789 
v -0.00355659 -0.00330056 -0.0234498 
v -0.00387944 -0.00329995 -0.0237775 
v -0.00355802 -0.00329995 -0.0234484 
v -0.00388091 -0.00329955 -0.023776 
v -0.00355949 -0.00329955 -0.023447 
v -0.0038824 -0.00329936 -0.0237746 
v -0.00356098 -0.00329936 -0.0234455 
vn 0.714943 -0.0348995 -0.698311 
vn 0.714943 -0.0348995 -0.698311 
vn 0.713636 0.0697565 -0.697035 
vn 0.713636 0.0697565 -0.697035 
vn 0.704511 0.173648 -0.688121 
vn 0.704511 0.173648 -0.688121 
vn 0.687666 0.275637 -0.671669 
vn 0.687666 0.275637 -0.671669 
vn 0.663288 0.374607 -0.647857 
vn 0.663288 0.374607 -0.647857 
vn 0.631642 0.469472 -0.616948 
vn 0.631642 0.469472 -0.616948 
vn 0.593076 0.559193 -0.579279 
vn 0.593076 0.559193 -0.579279 
vn 0.548012 0.642788 -0.535263 
vn 0.548012 0.642788 -0.535263 
vn 0.496944 0.71934 -0.485383 
vn 0.496944 0.71934 -0.485383 
vn 0.440431 0.788011 -0.430185 
vn 0.440431 0.788011 -0.430185 
vn 0.379093 0.848048 -0.370274 
vn 0.379093 0.848048 -0.370274 
vn 0.313601 0.898794 -0.306306 
vn 0.313601 0.898794 -0.306306 
vn 0.244674 0.939693 -0.238982 
vn 0.244674 0.939693 -0.238982 
vn 0.173066 0.970296 -0.16904 
vn 0.173066 0.970296 -0.16904 
vn 0.0995614 0.990268 -0.0972454 
vn 0.0995614 0.990268 -0.0972454 
vn 0.0249663 0.999391 -0.0243856 
vn 0.0249663 0.999391 -0.0243856 
f 29//29 30//30 31//31 
f 32//32 31//31 33//33 
f 34//34 33//33 35//35 
f 36//36 35//35 37//37 
f 38//38 37//37 39//39 
f 40//40 39//39 41//41 
f 42//42 41//41 43//43 
f 44//44 43//43 45//45 
f 46//46 45//45 47//47 
f 48//48 47//47 49//49 
f 50//50 49//49 51//51 
f 52//52 51//51 53//53 
f 54//54 53//53 55//55 
f 56//56 55//55 57//57 
f 58//58 57//57 59//59 
f 59//59 60//60 58//58 
f 57//57 58//58 56//56 
f 55//55 56//56 54//54 
f 53//53 54//54 52//52 
f 51//51 52//52 50//50 
f 49//49 50//50 48//48 
f 47//47 48//48 46//46 
f 45//45 46//46 44//44 
f 43//43 44//44 42//42 
f 41//41 42//42 40//40 
f 39//39 40//40 38//38 
f 37//37 38//38 36//36 
f 35//35 36//36 34//34 
f 33//33 34//34 32//32 
f 31//31 32//32 29//29 
