# OBJ generated by ONSHAPE BY PTC INC, 1.216 Units = meters
mtllib AK40_10_KV170_34.mtl
g AK40-10 KV170
usemtl 0.910000_0.910000_0.910000_0.000000_0.000000
o mesh523
v -0.00340204 -0.00655 -0.0218394 
v -0.00553318 -0.00655 -0.0240213 
v -0.00567626 -0.00655 -0.0238815 
v -0.00354511 -0.00655 -0.0216996 
vn 3.05428e-08 1 3.12702e-08 
vn 3.05428e-08 1 3.12702e-08 
vn 3.05428e-08 1 3.12702e-08 
vn 3.05428e-08 1 3.12702e-08 
f 1//1 2//2 3//3 
f 3//3 4//4 1//1 
o mesh524
v -0.00567626 -0.00655 -0.0238815 
v -0.00553318 -0.00655 -0.0240213 
v -0.00588255 -0.00699525 -0.024379 
v -0.00602563 -0.00699525 -0.0242392 
vn -0.464683 0.746814 -0.475751 
vn -0.464683 0.746814 -0.475751 
vn -0.464683 0.746814 -0.475751 
vn -0.464683 0.746814 -0.475751 
f 5//5 6//6 7//7 
f 7//7 8//8 5//5 
o mesh525
v -0.00602563 -0.00705 -0.0242392 
v -0.00602563 -0.00699525 -0.0242392 
v -0.00588255 -0.00699525 -0.024379 
v -0.00588255 -0.00705 -0.024379 
vn -0.698737 4.37114e-08 -0.715379 
vn -0.698737 4.37114e-08 -0.715379 
vn -0.698737 4.37114e-08 -0.715379 
vn -0.698737 4.37114e-08 -0.715379 
f 9//9 10//10 11//11 
f 11//11 12//12 9//9 
