# OBJ generated by ONSHAPE BY PTC INC, 1.216 Units = meters
mtllib AK40_10_KV170_16.mtl
g AK40-10 KV170
usemtl 0.910000_0.910000_0.910000_0.000000_0.000000
o mesh449
v -0.0047698 -0.00329936 -0.0246831 
v -0.0050256 -0.00328688 -0.0244332 
v -0.00470418 -0.00328688 -0.0241042 
v -0.00444838 -0.00329936 -0.024354 
vn 0.0249663 0.999391 -0.0243856 
vn 0.0249663 0.999391 -0.0243856 
vn 0.0249663 0.999391 -0.0243856 
vn 0.0249663 0.999391 -0.0243856 
f 1//1 2//2 3//3 
f 3//3 4//4 1//1 
o mesh450
v -0.00471955 -0.00328496 -0.0240892 
v -0.00470418 -0.00328688 -0.0241042 
v -0.0050256 -0.00328688 -0.0244332 
v -0.00473468 -0.00328075 -0.0240744 
v -0.00504097 -0.00328496 -0.0244182 
v -0.0047494 -0.00327428 -0.02406 
v -0.0050561 -0.00328075 -0.0244035 
v -0.00476354 -0.00326563 -0.0240462 
v -0.00507082 -0.00327428 -0.0243891 
v -0.00477692 -0.00325491 -0.0240331 
v -0.00508495 -0.00326563 -0.0243753 
v -0.0047894 -0.00324223 -0.0240209 
v -0.00509834 -0.00325491 -0.0243622 
v -0.00480084 -0.00322775 -0.0240098 
v -0.00511082 -0.00324223 -0.02435 
v -0.00481109 -0.00321163 -0.0239998 
v -0.00512226 -0.00322775 -0.0243388 
v -0.00482004 -0.00319406 -0.023991 
v -0.00513251 -0.00321163 -0.0243288 
v -0.00482758 -0.00317524 -0.0239836 
v -0.00514146 -0.00319406 -0.0243201 
v -0.00483364 -0.0031554 -0.0239777 
v -0.005149 -0.00317524 -0.0243127 
v -0.00515505 -0.0031554 -0.0243068 
vn 0.101809 0.989821 -0.0994407 
vn 0.0249663 0.999391 -0.0243856 
vn 0.0249663 0.999391 -0.0243856 
vn 0.177468 0.968741 -0.173339 
vn 0.101809 0.989821 -0.0994407 
vn 0.251062 0.936394 -0.245222 
vn 0.177468 0.968741 -0.173339 
vn 0.321737 0.893157 -0.314253 
vn 0.251062 0.936394 -0.245222 
vn 0.388671 0.839534 -0.379629 
vn 0.321737 0.893157 -0.314253 
vn 0.451084 0.776146 -0.44059 
vn 0.388671 0.839534 -0.379629 
vn 0.508251 0.703733 -0.496428 
vn 0.451084 0.776146 -0.44059 
vn 0.559508 0.623135 -0.546492 
vn 0.508251 0.703733 -0.496428 
vn 0.604258 0.535291 -0.5902 
vn 0.559508 0.623135 -0.546492 
vn 0.64198 0.441221 -0.627045 
vn 0.604258 0.535291 -0.5902 
vn 0.672236 0.34202 -0.656598 
vn 0.64198 0.441221 -0.627045 
vn 0.672236 0.34202 -0.656598 
f 5//5 6//6 7//7 
f 8//8 5//5 9//9 
f 10//10 8//8 11//11 
f 12//12 10//10 13//13 
f 14//14 12//12 15//15 
f 16//16 14//14 17//17 
f 18//18 16//16 19//19 
f 20//20 18//18 21//21 
f 22//22 20//20 23//23 
f 24//24 22//22 25//25 
f 26//26 24//24 27//27 
f 27//27 28//28 26//26 
f 25//25 27//27 24//24 
f 23//23 25//25 22//22 
f 21//21 23//23 20//20 
f 19//19 21//21 18//18 
f 17//17 19//19 16//16 
f 15//15 17//17 14//14 
f 13//13 15//15 12//12 
f 11//11 13//13 10//10 
f 9//9 11//11 8//8 
f 7//7 9//9 5//5 
