# OBJ generated by ONSHAPE BY PTC INC, 1.216 Units = meters
mtllib AK40_10_KV170_48.mtl
g AK40-10 KV170
usemtl 0.910000_0.910000_0.910000_0.000000_0.000000
o mesh672
v 0.00167434 0.019 0.00109389 
v 0.00167434 0.023 0.00109389 
v 0.00154625 0.023 0.0012685 
v 0.00154625 0.019 0.0012685 
v 0.00140004 0.023 0.00142825 
v 0.00140004 0.019 0.00142825 
v 0.00123741 0.023 0.00157125 
v 0.00123741 0.019 0.00157125 
v 0.00106028 0.023 0.00169582 
v 0.00106028 0.019 0.00169582 
v 0.00087071 0.023 0.00180052 
v 0.00087071 0.019 0.00180052 
v 0.000670936 0.023 0.0018841 
v 0.000670936 0.019 0.0018841 
v 0.000463296 0.023 0.0019456 
v 0.000463296 0.019 0.0019456 
v 0.000250223 0.023 0.00198429 
v 0.000250223 0.019 0.00198429 
v 3.42177e-05 0.023 0.00199971 
v 3.42177e-05 0.019 0.00199971 
v -0.000182189 0.023 0.00199168 
v -0.000182189 0.019 0.00199168 
v -0.00039646 0.023 0.00196031 
v -0.00039646 0.019 0.00196031 
v -0.000606083 0.023 0.00190595 
v -0.000606083 0.019 0.00190595 
v -0.0008086 0.023 0.00182925 
v -0.0008086 0.019 0.00182925 
v -0.00100164 0.023 0.0017311 
v -0.00100164 0.019 0.0017311 
v -0.00118293 0.023 0.00161266 
v -0.00118293 0.019 0.00161266 
v -0.00135036 0.023 0.00147531 
v -0.00135036 0.019 0.00147531 
v -0.00150195 0.023 0.00132066 
v -0.00150195 0.019 0.00132066 
v -0.00163593 0.023 0.00115053 
v -0.00163593 0.019 0.00115053 
v -0.00175074 0.023 0.000966911 
v -0.00175074 0.019 0.000966911 
v -0.00184502 0.023 0.000771955 
v -0.00184502 0.019 0.000771955 
v -0.00191766 0.023 0.000567949 
v -0.00191766 0.019 0.000567949 
v -0.00196783 0.023 0.000357284 
v -0.00196783 0.019 0.000357284 
v -0.00199492 0.023 0.000142429 
v -0.00199492 0.019 0.000142429 
v -0.00199863 0.023 -7.40945e-05 
v -0.00199863 0.019 -7.40945e-05 
v -0.0019789 0.023 -0.00028975 
v -0.0019789 0.019 -0.00028975 
v -0.00193597 0.023 -0.000502008 
v -0.00193597 0.019 -0.000502008 
v -0.00187035 0.023 -0.000708381 
v -0.00187035 0.019 -0.000708381 
v -0.00178279 0.023 -0.000906448 
v -0.00178279 0.019 -0.000906448 
v -0.00167434 0.023 -0.00109389 
v -0.00167434 0.019 -0.00109389 
v -0.00154625 0.023 -0.0012685 
v -0.00154625 0.019 -0.0012685 
v -0.00140004 0.023 -0.00142825 
v -0.00140004 0.019 -0.00142825 
v -0.00123741 0.023 -0.00157125 
v -0.00123741 0.019 -0.00157125 
v -0.00106028 0.023 -0.00169582 
v -0.00106028 0.019 -0.00169582 
v -0.00087071 0.023 -0.00180052 
v -0.00087071 0.019 -0.00180052 
v -0.000670936 0.023 -0.0018841 
v -0.000670936 0.019 -0.0018841 
v -0.000463296 0.023 -0.0019456 
v -0.000463296 0.019 -0.0019456 
v -0.000250223 0.023 -0.00198429 
v -0.000250223 0.019 -0.00198429 
v -3.42177e-05 0.023 -0.00199971 
v -3.42177e-05 0.019 -0.00199971 
v 0.000182189 0.023 -0.00199168 
v 0.000182189 0.019 -0.00199168 
v 0.00039646 0.023 -0.00196031 
v 0.00039646 0.019 -0.00196031 
v 0.000606083 0.023 -0.00190595 
v 0.000606083 0.019 -0.00190595 
v 0.0008086 0.023 -0.00182925 
v 0.0008086 0.019 -0.00182925 
v 0.00100164 0.023 -0.0017311 
v 0.00100164 0.019 -0.0017311 
v 0.00118293 0.023 -0.00161266 
v 0.00118293 0.019 -0.00161266 
v 0.00135036 0.023 -0.00147531 
v 0.00135036 0.019 -0.00147531 
v 0.00150195 0.023 -0.00132066 
v 0.00150195 0.019 -0.00132066 
v 0.00163593 0.023 -0.00115053 
v 0.00163593 0.019 -0.00115053 
v 0.00175074 0.023 -0.000966911 
v 0.00175074 0.019 -0.000966911 
v 0.00184502 0.023 -0.000771955 
v 0.00184502 0.019 -0.000771955 
v 0.00191766 0.023 -0.000567949 
v 0.00191766 0.019 -0.000567949 
v 0.00196783 0.023 -0.000357284 
v 0.00196783 0.019 -0.000357284 
v 0.00199492 0.023 -0.000142429 
v 0.00199492 0.019 -0.000142429 
v 0.00199863 0.023 7.40945e-05 
v 0.00199863 0.019 7.40945e-05 
v 0.0019789 0.023 0.00028975 
v 0.0019789 0.019 0.00028975 
v 0.00193597 0.023 0.000502008 
v 0.00193597 0.019 0.000502008 
v 0.00187035 0.023 0.000708381 
v 0.00187035 0.019 0.000708381 
v 0.00178279 0.023 0.000906448 
v 0.00178279 0.019 0.000906448 
vn 0.837169 0 0.546944 
vn 0.837169 0 0.546944 
vn 0.773127 0 0.634252 
vn 0.773127 0 0.634252 
vn 0.70002 0 0.714123 
vn 0.70002 0 0.714123 
vn 0.618706 0 0.785623 
vn 0.618706 0 0.785623 
vn 0.530138 0 0.847911 
vn 0.530138 0 0.847911 
vn 0.435355 0 0.900259 
vn 0.435355 0 0.900259 
vn 0.335468 0 0.942052 
vn 0.335468 0 0.942052 
vn 0.231648 0 0.9728 
vn 0.231648 0 0.9728 
vn 0.125112 0 0.992143 
vn 0.125112 0 0.992143 
vn 0.0171088 0 0.999854 
vn 0.0171088 0 0.999854 
vn -0.0910947 0 0.995842 
vn -0.0910947 0 0.995842 
vn -0.19823 0 0.980156 
vn -0.19823 0 0.980156 
vn -0.303042 0 0.952977 
vn -0.303042 0 0.952977 
vn -0.4043 0 0.914626 
vn -0.4043 0 0.914626 
vn -0.500819 0 0.865552 
vn -0.500819 0 0.865552 
vn -0.591465 0 0.80633 
vn -0.591465 0 0.80633 
vn -0.675178 0 0.737655 
vn -0.675178 0 0.737655 
vn -0.750974 0 0.660331 
vn -0.750974 0 0.660331 
vn -0.817967 0 0.575266 
vn -0.817967 0 0.575266 
vn -0.875369 0 0.483456 
vn -0.875369 0 0.483456 
vn -0.922508 0 0.385978 
vn -0.922508 0 0.385978 
vn -0.958832 0 0.283974 
vn -0.958832 0 0.283974 
vn -0.983914 0 0.178642 
vn -0.983914 0 0.178642 
vn -0.997461 0 0.0712147 
vn -0.997461 0 0.0712147 
vn -0.999314 0 -0.0370472 
vn -0.999314 0 -0.0370472 
vn -0.98945 0 -0.144875 
vn -0.98945 0 -0.144875 
vn -0.967986 0 -0.251004 
vn -0.967986 0 -0.251004 
vn -0.935173 0 -0.35419 
vn -0.935173 0 -0.35419 
vn -0.891397 0 -0.453224 
vn -0.891397 0 -0.453224 
vn -0.837169 0 -0.546944 
vn -0.837169 0 -0.546944 
vn -0.773127 0 -0.634252 
vn -0.773127 0 -0.634252 
vn -0.70002 0 -0.714123 
vn -0.70002 0 -0.714123 
vn -0.618706 0 -0.785623 
vn -0.618706 0 -0.785623 
vn -0.530138 0 -0.847911 
vn -0.530138 0 -0.847911 
vn -0.435355 0 -0.900259 
vn -0.435355 0 -0.900259 
vn -0.335468 0 -0.942052 
vn -0.335468 0 -0.942052 
vn -0.231648 0 -0.9728 
vn -0.231648 0 -0.9728 
vn -0.125112 0 -0.992143 
vn -0.125112 0 -0.992143 
vn -0.0171088 0 -0.999854 
vn -0.0171088 0 -0.999854 
vn 0.0910947 0 -0.995842 
vn 0.0910947 0 -0.995842 
vn 0.19823 0 -0.980156 
vn 0.19823 0 -0.980156 
vn 0.303042 0 -0.952977 
vn 0.303042 0 -0.952977 
vn 0.4043 0 -0.914626 
vn 0.4043 0 -0.914626 
vn 0.500819 0 -0.865552 
vn 0.500819 0 -0.865552 
vn 0.591465 0 -0.80633 
vn 0.591465 0 -0.80633 
vn 0.675178 0 -0.737655 
vn 0.675178 0 -0.737655 
vn 0.750974 0 -0.660331 
vn 0.750974 0 -0.660331 
vn 0.817967 0 -0.575266 
vn 0.817967 0 -0.575266 
vn 0.875369 0 -0.483456 
vn 0.875369 0 -0.483456 
vn 0.922508 0 -0.385978 
vn 0.922508 0 -0.385978 
vn 0.958832 0 -0.283974 
vn 0.958832 0 -0.283974 
vn 0.983914 0 -0.178642 
vn 0.983914 0 -0.178642 
vn 0.997461 0 -0.0712147 
vn 0.997461 0 -0.0712147 
vn 0.999314 0 0.0370472 
vn 0.999314 0 0.0370472 
vn 0.98945 0 0.144875 
vn 0.98945 0 0.144875 
vn 0.967986 0 0.251004 
vn 0.967986 0 0.251004 
vn 0.935173 0 0.35419 
vn 0.935173 0 0.35419 
vn 0.891397 0 0.453224 
vn 0.891397 0 0.453224 
f 1//1 2//2 3//3 
f 4//4 3//3 5//5 
f 6//6 5//5 7//7 
f 8//8 7//7 9//9 
f 10//10 9//9 11//11 
f 12//12 11//11 13//13 
f 14//14 13//13 15//15 
f 16//16 15//15 17//17 
f 18//18 17//17 19//19 
f 20//20 19//19 21//21 
f 22//22 21//21 23//23 
f 24//24 23//23 25//25 
f 26//26 25//25 27//27 
f 28//28 27//27 29//29 
f 30//30 29//29 31//31 
f 32//32 31//31 33//33 
f 34//34 33//33 35//35 
f 36//36 35//35 37//37 
f 38//38 37//37 39//39 
f 40//40 39//39 41//41 
f 42//42 41//41 43//43 
f 44//44 43//43 45//45 
f 46//46 45//45 47//47 
f 48//48 47//47 49//49 
f 50//50 49//49 51//51 
f 52//52 51//51 53//53 
f 54//54 53//53 55//55 
f 56//56 55//55 57//57 
f 58//58 57//57 59//59 
f 60//60 59//59 61//61 
f 62//62 61//61 63//63 
f 64//64 63//63 65//65 
f 66//66 65//65 67//67 
f 68//68 67//67 69//69 
f 70//70 69//69 71//71 
f 72//72 71//71 73//73 
f 74//74 73//73 75//75 
f 76//76 75//75 77//77 
f 78//78 77//77 79//79 
f 80//80 79//79 81//81 
f 82//82 81//81 83//83 
f 84//84 83//83 85//85 
f 86//86 85//85 87//87 
f 88//88 87//87 89//89 
f 90//90 89//89 91//91 
f 92//92 91//91 93//93 
f 94//94 93//93 95//95 
f 96//96 95//95 97//97 
f 98//98 97//97 99//99 
f 100//100 99//99 101//101 
f 102//102 101//101 103//103 
f 104//104 103//103 105//105 
f 106//106 105//105 107//107 
f 108//108 107//107 109//109 
f 110//110 109//109 111//111 
f 112//112 111//111 113//113 
f 114//114 113//113 115//115 
f 116//116 115//115 2//2 
f 2//2 1//1 116//116 
f 115//115 116//116 114//114 
f 113//113 114//114 112//112 
f 111//111 112//112 110//110 
f 109//109 110//110 108//108 
f 107//107 108//108 106//106 
f 105//105 106//106 104//104 
f 103//103 104//104 102//102 
f 101//101 102//102 100//100 
f 99//99 100//100 98//98 
f 97//97 98//98 96//96 
f 95//95 96//96 94//94 
f 93//93 94//94 92//92 
f 91//91 92//92 90//90 
f 89//89 90//90 88//88 
f 87//87 88//88 86//86 
f 85//85 86//86 84//84 
f 83//83 84//84 82//82 
f 81//81 82//82 80//80 
f 79//79 80//80 78//78 
f 77//77 78//78 76//76 
f 75//75 76//76 74//74 
f 73//73 74//74 72//72 
f 71//71 72//72 70//70 
f 69//69 70//70 68//68 
f 67//67 68//68 66//66 
f 65//65 66//66 64//64 
f 63//63 64//64 62//62 
f 61//61 62//62 60//60 
f 59//59 60//60 58//58 
f 57//57 58//58 56//56 
f 55//55 56//56 54//54 
f 53//53 54//54 52//52 
f 51//51 52//52 50//50 
f 49//49 50//50 48//48 
f 47//47 48//48 46//46 
f 45//45 46//46 44//44 
f 43//43 44//44 42//42 
f 41//41 42//42 40//40 
f 39//39 40//40 38//38 
f 37//37 38//38 36//36 
f 35//35 36//36 34//34 
f 33//33 34//34 32//32 
f 31//31 32//32 30//30 
f 29//29 30//30 28//28 
f 27//27 28//28 26//26 
f 25//25 26//26 24//24 
f 23//23 24//24 22//22 
f 21//21 22//22 20//20 
f 19//19 20//20 18//18 
f 17//17 18//18 16//16 
f 15//15 16//16 14//14 
f 13//13 14//14 12//12 
f 11//11 12//12 10//10 
f 9//9 10//10 8//8 
f 7//7 8//8 6//6 
f 5//5 6//6 4//4 
f 3//3 4//4 1//1 
o mesh673
v 0 0.023 0 
v -0.00178279 0.023 -0.000906448 
v -0.00187035 0.023 -0.000708381 
v -0.00193597 0.023 -0.000502008 
v -0.0019789 0.023 -0.00028975 
v -0.00199863 0.023 -7.40945e-05 
v -0.00199492 0.023 0.000142429 
v -0.00196783 0.023 0.000357284 
v -0.00191766 0.023 0.000567949 
v -0.00184502 0.023 0.000771955 
v -0.00175074 0.023 0.000966911 
v -0.00163593 0.023 0.00115053 
v -0.00150195 0.023 0.00132066 
v -0.00135036 0.023 0.00147531 
v -0.00118293 0.023 0.00161266 
v -0.00100164 0.023 0.0017311 
v -0.0008086 0.023 0.00182925 
v -0.000606083 0.023 0.00190595 
v -0.00039646 0.023 0.00196031 
v -0.000182189 0.023 0.00199168 
v 3.42177e-05 0.023 0.00199971 
v 0.000250223 0.023 0.00198429 
v 0.000463296 0.023 0.0019456 
v 0.000670936 0.023 0.0018841 
v 0.00087071 0.023 0.00180052 
v 0.00106028 0.023 0.00169582 
v 0.00123741 0.023 0.00157125 
v 0.00140004 0.023 0.00142825 
v 0.00154625 0.023 0.0012685 
v 0.00167434 0.023 0.00109389 
v 0.00178279 0.023 0.000906448 
v 0.00187035 0.023 0.000708381 
v 0.00193597 0.023 0.000502008 
v 0.0019789 0.023 0.00028975 
v 0.00199863 0.023 7.40945e-05 
v 0.00199492 0.023 -0.000142429 
v 0.00196783 0.023 -0.000357284 
v 0.00191766 0.023 -0.000567949 
v 0.00184502 0.023 -0.000771955 
v 0.00175074 0.023 -0.000966911 
v 0.00163593 0.023 -0.00115053 
v 0.00150195 0.023 -0.00132066 
v 0.00135036 0.023 -0.00147531 
v 0.00118293 0.023 -0.00161266 
v 0.00100164 0.023 -0.0017311 
v 0.0008086 0.023 -0.00182925 
v 0.000606083 0.023 -0.00190595 
v 0.00039646 0.023 -0.00196031 
v 0.000182189 0.023 -0.00199168 
v -3.42177e-05 0.023 -0.00199971 
v -0.000250223 0.023 -0.00198429 
v -0.000463296 0.023 -0.0019456 
v -0.000670936 0.023 -0.0018841 
v -0.00087071 0.023 -0.00180052 
v -0.00106028 0.023 -0.00169582 
v -0.00123741 0.023 -0.00157125 
v -0.00140004 0.023 -0.00142825 
v -0.00154625 0.023 -0.0012685 
v -0.00167434 0.023 -0.00109389 
vn 0 1 0 
vn 0 1 0 
vn 0 1 0 
vn 0 1 0 
vn 0 1 0 
vn 0 1 0 
vn 0 1 0 
vn 0 1 0 
vn 0 1 0 
vn 0 1 0 
vn 0 1 0 
vn 0 1 0 
vn 0 1 0 
vn 0 1 0 
vn 0 1 0 
vn 0 1 0 
vn 0 1 0 
vn 0 1 0 
vn 0 1 0 
vn 0 1 0 
vn 0 1 0 
vn 0 1 0 
vn 0 1 0 
vn 0 1 0 
vn 0 1 0 
vn 0 1 0 
vn 0 1 0 
vn 0 1 0 
vn 0 1 0 
vn 0 1 0 
vn 0 1 0 
vn 0 1 0 
vn 0 1 0 
vn 0 1 0 
vn 0 1 0 
vn 0 1 0 
vn 0 1 0 
vn 0 1 0 
vn 0 1 0 
vn 0 1 0 
vn 0 1 0 
vn 0 1 0 
vn 0 1 0 
vn 0 1 0 
vn 0 1 0 
vn 0 1 0 
vn 0 1 0 
vn 0 1 0 
vn 0 1 0 
vn 0 1 0 
vn 0 1 0 
vn 0 1 0 
vn 0 1 0 
vn 0 1 0 
vn 0 1 0 
vn 0 1 0 
vn 0 1 0 
vn 0 1 0 
vn 0 1 0 
f 117//117 118//118 119//119 
f 119//119 120//120 117//117 
f 120//120 121//121 117//117 
f 121//121 122//122 117//117 
f 122//122 123//123 117//117 
f 123//123 124//124 117//117 
f 124//124 125//125 117//117 
f 125//125 126//126 117//117 
f 126//126 127//127 117//117 
f 127//127 128//128 117//117 
f 128//128 129//129 117//117 
f 129//129 130//130 117//117 
f 130//130 131//131 117//117 
f 131//131 132//132 117//117 
f 132//132 133//133 117//117 
f 133//133 134//134 117//117 
f 134//134 135//135 117//117 
f 135//135 136//136 117//117 
f 136//136 137//137 117//117 
f 137//137 138//138 117//117 
f 138//138 139//139 117//117 
f 139//139 140//140 117//117 
f 140//140 141//141 117//117 
f 141//141 142//142 117//117 
f 142//142 143//143 117//117 
f 143//143 144//144 117//117 
f 144//144 145//145 117//117 
f 145//145 146//146 117//117 
f 146//146 147//147 117//117 
f 147//147 148//148 117//117 
f 148//148 149//149 117//117 
f 149//149 150//150 117//117 
f 150//150 151//151 117//117 
f 151//151 152//152 117//117 
f 152//152 153//153 117//117 
f 153//153 154//154 117//117 
f 154//154 155//155 117//117 
f 155//155 156//156 117//117 
f 156//156 157//157 117//117 
f 157//157 158//158 117//117 
f 158//158 159//159 117//117 
f 159//159 160//160 117//117 
f 160//160 161//161 117//117 
f 161//161 162//162 117//117 
f 162//162 163//163 117//117 
f 163//163 164//164 117//117 
f 164//164 165//165 117//117 
f 165//165 166//166 117//117 
f 166//166 167//167 117//117 
f 167//167 168//168 117//117 
f 168//168 169//169 117//117 
f 169//169 170//170 117//117 
f 170//170 171//171 117//117 
f 171//171 172//172 117//117 
f 172//172 173//173 117//117 
f 173//173 174//174 117//117 
f 174//174 175//175 117//117 
f 175//175 118//118 117//117 
